<svg xmlns="http://www.w3.org/2000/svg" width="154" height="124" viewBox="0 0 154 124" fill="none">
    <path fill-rule="evenodd" clip-rule="evenodd" d="M43.9289 27.5928H96.4329C98.0532 27.6584 99.6687 27.3555 101.183 26.7025C102.697 26.0495 104.079 25.0599 105.246 23.7923C106.413 22.5246 107.341 21.0049 107.975 19.3243C108.608 17.6438 108.935 15.8367 108.935 14.0108C108.935 12.1849 108.608 10.3778 107.975 8.69721C107.341 7.01667 106.413 5.49736 105.246 4.22969C104.079 2.96202 102.697 1.972 101.183 1.31902C99.6687 0.666039 98.0532 0.363544 96.4329 0.429206H43.9289C43.1463 0.429206 42.3958 0.779121 41.8424 1.40229C41.2891 2.02546 40.9783 2.87065 40.9783 3.75195C40.9783 4.63324 41.2891 5.47843 41.8424 6.1016C42.0862 6.37617 42.3683 6.59777 42.6746 6.75978C43.4937 8.99644 43.9162 11.3944 43.9162 13.8183C43.9162 16.3536 43.4539 18.8605 42.5591 21.1842C42.2406 21.3357 41.9477 21.5489 41.6938 21.8148C41.3953 22.1274 41.1572 22.506 40.9944 22.9269C40.8315 23.3478 40.7476 23.8019 40.7476 24.261C40.7476 24.7201 40.8315 25.1742 40.9944 25.5951C41.1572 26.016 41.3953 26.3946 41.6938 26.7072C41.9923 27.0199 42.3449 27.2597 42.7295 27.412C43.114 27.5644 43.5223 27.626 43.9289 27.5928ZM96.4329 7.07512H49.7666C50.2853 9.25331 50.5504 11.5052 50.5504 13.7741C50.5504 16.2016 50.247 18.6099 49.6541 20.9292H96.4329C98.0643 20.9292 99.6289 20.1993 100.782 18.9002C101.936 17.6011 102.584 15.8394 102.584 14.0022C102.584 12.165 101.936 10.4028 100.782 9.1037C99.6289 7.80461 98.0643 7.07512 96.4329 7.07512ZM43.3045 69.0154H119.68C120.682 69.0154 121.643 68.5668 122.351 67.7689C123.06 66.9709 123.458 65.8887 123.458 64.7603C123.458 63.6319 123.06 62.5497 122.351 61.7518C121.807 61.1388 121.114 60.7323 120.367 60.5767C119.278 57.3916 118.717 54.0033 118.717 50.5805C118.717 46.5979 119.476 42.6618 120.944 39.0383C120.967 38.9945 120.99 38.9503 121.012 38.9057C121.51 38.6944 121.967 38.3649 122.351 37.9328C123.06 37.1349 123.458 36.0527 123.458 34.9243C123.458 33.7959 123.06 32.7137 122.351 31.9158C121.643 31.1178 120.682 30.6697 119.68 30.6697H43.3045C41.0253 30.592 38.7554 31.0301 36.6295 31.9587C34.5036 32.8872 32.565 34.2871 30.9285 36.0751C29.2919 37.8631 27.9907 40.0033 27.1022 42.3682C26.2137 44.733 25.7559 47.2747 25.7559 49.8425C25.7559 52.4104 26.2137 54.952 27.1022 57.3169C27.9907 59.6817 29.2919 61.8215 30.9285 63.6095C32.565 65.3976 34.5036 66.7974 36.6295 67.7259C38.7554 68.6545 41.0253 69.0931 43.3045 69.0154ZM43.0859 60.5057H111.692C110.893 57.2991 110.48 53.9759 110.471 50.6256C110.462 46.7298 111 42.8673 112.057 39.1789H43.3045C40.8559 39.2544 38.5283 40.3949 36.81 42.3609C35.0917 44.3268 34.1162 46.9657 34.0879 49.7241C34.0596 52.4824 34.9809 55.1458 36.6584 57.1559C38.336 59.166 40.6395 60.3666 43.0859 60.5057ZM127.485 123.536H5.39717C4.77944 123.63 4.15111 123.573 3.55427 123.371C2.95743 123.169 2.40593 122.825 1.93673 122.363C1.46753 121.901 1.09148 121.331 0.833844 120.692C0.576205 120.053 0.442871 119.359 0.442871 118.657C0.442871 117.955 0.576205 117.261 0.833844 116.622C1.09148 115.983 1.46753 115.413 1.93673 114.951C2.40593 114.489 2.95743 114.145 3.55427 113.943C4.15111 113.741 4.77944 113.685 5.39717 113.778H5.49249C8.02062 108.465 9.25523 102.49 9.06677 96.4596C9.08307 91.2281 8.00231 86.0725 5.91958 81.4101H5.39717C4.77944 81.5037 4.15111 81.4476 3.55427 81.2453C2.95743 81.043 2.40593 80.6991 1.93673 80.237C1.46753 79.7749 1.09148 79.2055 0.833844 78.5664C0.576205 77.9272 0.442871 77.2333 0.442871 76.5314C0.442871 75.8295 0.576205 75.1355 0.833844 74.4963C1.09148 73.8572 1.46753 73.2878 1.93673 72.8258C2.40593 72.3637 2.95743 72.0198 3.55427 71.8175C4.15111 71.6151 4.77944 71.5591 5.39717 71.6526H127.485C141.848 71.6526 153.557 83.2917 153.557 97.5856C153.557 111.879 141.786 123.536 127.485 123.536ZM127.782 113.778H15.5706C17.5772 108.269 18.5389 102.327 18.3716 96.3365C18.3592 91.2155 17.5138 86.1583 15.8928 81.4101H127.422C136.384 81.4101 143.675 88.7772 143.675 97.5856C143.675 106.394 136.587 113.567 127.782 113.778ZM39.6824 93.717H120.585C120.916 93.717 121.234 93.5691 121.468 93.3053C121.702 93.0415 121.834 92.6838 121.834 92.3108C121.834 92.1269 121.802 91.9447 121.739 91.7751C121.676 91.6054 121.584 91.4514 121.467 91.3222C121.351 91.193 121.213 91.0909 121.062 91.0222C120.91 90.9534 120.748 90.9194 120.585 90.9217H39.6824C39.3553 90.9217 39.0416 91.0682 38.8103 91.3287C38.579 91.5891 38.449 91.9424 38.449 92.3108C38.4489 92.6808 38.5784 93.0356 38.8093 93.2989C39.0401 93.5622 39.3539 93.7123 39.6824 93.717ZM84.6767 102.42H40.1506C39.8193 102.42 39.5017 102.272 39.2674 102.008C39.0332 101.744 38.9016 101.387 38.9016 101.014C38.9016 100.83 38.934 100.648 38.997 100.478C39.06 100.308 39.1522 100.154 39.2684 100.025C39.3846 99.8959 39.5224 99.7938 39.6738 99.7251C39.8253 99.6563 39.9873 99.6223 40.1506 99.6246H84.6767C84.84 99.6223 85.002 99.6563 85.1535 99.7251C85.3049 99.7938 85.4428 99.8959 85.559 100.025C85.6752 100.154 85.7675 100.308 85.8304 100.478C85.8934 100.648 85.9257 100.83 85.9257 101.014C85.9257 101.387 85.794 101.744 85.5598 102.008C85.3256 102.272 85.008 102.42 84.6767 102.42ZM53.0464 46.1239H97.5881C97.7522 46.1239 97.9146 46.0873 98.0661 46.0166C98.2176 45.9459 98.3553 45.8424 98.4713 45.7118C98.5873 45.5812 98.6793 45.4262 98.7421 45.2555C98.8049 45.0849 98.8372 44.902 98.8372 44.7173C98.8372 44.5334 98.8047 44.3512 98.7417 44.1816C98.6787 44.0119 98.5865 43.8579 98.4703 43.7287C98.3541 43.5995 98.2164 43.4974 98.065 43.4287C97.9135 43.3599 97.7514 43.3259 97.5881 43.3282H53.0464C52.7193 43.3282 52.4056 43.4747 52.1743 43.7352C51.943 43.9956 51.8131 44.3489 51.8131 44.7173C51.811 44.9011 51.8413 45.0837 51.9024 45.2542C51.9634 45.4248 52.054 45.5797 52.1687 45.7105C52.2834 45.8414 52.4202 45.9457 52.5708 46.0166C52.7215 46.0875 52.8831 46.1239 53.0464 46.1239ZM62.1328 53.2791H39.417C39.2537 53.2814 39.0916 53.2474 38.9402 53.1786C38.7887 53.1099 38.6509 53.0078 38.5347 52.8786C38.4186 52.7494 38.3263 52.5954 38.2634 52.4258C38.2004 52.2561 38.168 52.0744 38.168 51.8905C38.168 51.5175 38.2996 51.1597 38.5338 50.896C38.768 50.6322 39.0858 50.4839 39.417 50.4839H62.1328C62.4641 50.4839 62.7817 50.6322 63.016 50.896C63.2502 51.1597 63.3818 51.5175 63.3818 51.8905C63.3818 52.0744 63.3494 52.2561 63.2864 52.4258C63.2234 52.5954 63.1312 52.7494 63.015 52.8786C62.8988 53.0078 62.761 53.1099 62.6096 53.1786C62.4581 53.2474 62.2961 53.2814 62.1328 53.2791ZM58.4951 15.4085H81.2265C81.4012 15.4306 81.5781 15.4107 81.7456 15.3505C81.913 15.2904 82.0673 15.191 82.1984 15.0591C82.3294 14.9271 82.4343 14.7655 82.5061 14.5848C82.5779 14.4041 82.6149 14.2084 82.6149 14.0104C82.6149 13.8125 82.5779 13.6168 82.5061 13.4361C82.4343 13.2554 82.3294 13.0937 82.1984 12.9618C82.0673 12.8299 81.913 12.7305 81.7456 12.6704C81.5781 12.6102 81.4012 12.5907 81.2265 12.6128H58.4951C58.1899 12.6514 57.908 12.8151 57.7033 13.073C57.4986 13.3308 57.3855 13.6646 57.3855 14.0104C57.3855 14.3563 57.4986 14.6901 57.7033 14.9479C57.908 15.2057 58.1899 15.3699 58.4951 15.4085Z" fill="url(#paint0_linear_2_2778)"/>
    <defs>
        <linearGradient id="paint0_linear_2_2778" x1="14.8845" y1="-4.30058" x2="70.7317" y2="152.626" gradientUnits="userSpaceOnUse">
            <stop stop-color="#437FEC"/>
            <stop offset="0.38" stop-color="#356FD8"/>
            <stop offset="1" stop-color="#184EAE"/>
        </linearGradient>
    </defs>
</svg>