<svg xmlns="http://www.w3.org/2000/svg" width="106" height="120" viewBox="0 0 106 120" fill="none">
    <path d="M80.0897 9.39782C86.4854 9.39782 91.8403 17.1517 92.5957 18.1777C95.6629 23.0341 97.0437 28.7693 96.5237 34.4928C96.1411 38.9085 95.0588 43.2352 93.3175 47.3097C89.2651 59.3643 83.0595 70.5803 75.0034 80.4109C63.9578 94.2872 53.6676 101.688 45.1904 106.027C42.5452 107.583 39.7285 108.824 36.7971 109.728C34.634 110.274 32.4139 110.562 30.1832 110.586H29.2264C20.5477 110.182 9.68681 104.026 9.4518 96.6418C9.4117 94.8546 9.90884 93.0965 10.8787 91.5959L22.176 77.3833C22.8101 76.5792 23.6191 75.9308 24.5413 75.4878C25.4636 75.0447 26.4746 74.8186 27.4974 74.8266C29.035 74.8201 30.5282 75.3428 31.7276 76.307L43.0417 85.3222C49.4333 80.4662 55.1814 74.8141 60.1472 68.5024C66.004 61.1416 70.8534 53.0303 74.5669 44.3831L63.8067 35.8385C63.0998 35.2875 62.51 34.6002 62.0721 33.8173C61.6342 33.0345 61.357 32.1718 61.2569 31.28C61.1568 30.3882 61.2358 29.4855 61.4892 28.6248C61.7426 27.764 62.1653 26.9627 62.7324 26.2681L74.0297 12.0555C75.2753 10.7975 76.8536 9.92212 78.5789 9.53251C79.0763 9.43222 79.5823 9.38137 80.0897 9.38098V9.39782ZM80.0897 0.483246C79.0017 0.479574 77.9162 0.58655 76.8499 0.802723C73.4411 1.52082 70.3113 3.20877 67.8355 5.66387L67.4158 6.06753L67.0633 6.50486L55.7659 20.7175C53.1808 23.9839 51.9926 28.1434 52.4614 32.2856C52.9302 36.4278 55.0178 40.215 58.2672 42.8185L63.4374 46.9397C60.5632 52.6144 57.1091 57.975 53.1305 62.9353C50.0432 66.8679 46.6106 70.5155 42.8739 73.8345L37.2 69.3265C35.5899 68.0392 33.7425 67.0828 31.7632 66.5112C29.784 65.9396 27.7117 65.7642 25.6648 65.9954C23.618 66.2266 21.6366 66.8598 19.834 67.8585C18.0314 68.8572 16.4429 70.2017 15.1592 71.8158L3.86187 86.0289L3.49256 86.4999L3.17361 87.0041C1.33605 89.9683 0.402561 93.406 0.487777 96.8944C0.706002 103.286 4.51654 109.223 11.2312 113.714C16.4643 117.141 22.4991 119.141 28.7396 119.517C29.1928 119.517 29.6628 119.517 30.1161 119.517C33.0773 119.5 36.0255 119.121 38.8954 118.39C42.0961 117.516 45.1752 116.245 48.0609 114.606L49.236 113.983C61.1041 107.911 71.8139 98.7446 81.953 85.9952C90.6718 75.3294 97.3887 63.1682 101.778 50.1016C101.912 49.6811 102.114 49.143 102.349 48.5038C104.092 44.1685 105.124 39.5789 105.404 34.9133C106.022 27.2706 104.105 19.6373 99.9482 13.1991C97.3463 9.39783 90.2288 0.533754 80.0897 0.533754V0.483246Z" fill="url(#paint0_linear_2_483)"/>
    <defs>
        <linearGradient id="paint0_linear_2_483" x1="10.3892" y1="-4.07968" x2="78.8558" y2="132.47" gradientUnits="userSpaceOnUse">
            <stop stop-color="#437FEC"/>
            <stop offset="0.38" stop-color="#356FD8"/>
            <stop offset="1" stop-color="#184EAE"/>
        </linearGradient>
    </defs>
</svg>