<svg xmlns="http://www.w3.org/2000/svg" width="90" height="122" viewBox="0 0 90 122" fill="none">
    <path fill-rule="evenodd" clip-rule="evenodd" d="M18.6539 0.491211H75.6187C77.435 0.491211 79.2335 0.848254 80.9115 1.54221C82.5895 2.23617 84.1142 3.25366 85.3985 4.53593C86.6827 5.8182 87.7015 7.34018 88.3966 9.01554C89.0916 10.6909 89.4493 12.4867 89.4493 14.3001V92.2854C89.4493 95.9477 87.9922 99.4603 85.3985 102.05C82.8047 104.64 79.2868 106.094 75.6187 106.094H38.3971C40.1092 103.319 41.1619 100.19 41.4744 96.9462H75.6187C76.8567 96.9462 78.044 96.4548 78.9194 95.5808C79.7947 94.7068 80.2866 93.5214 80.2866 92.2854V14.3001C80.2866 13.064 79.7947 11.8786 78.9194 11.0046C78.044 10.1306 76.8567 9.63966 75.6187 9.63966H18.6539C17.4159 9.63966 16.2286 10.1306 15.3532 11.0046C14.4778 11.8786 13.9861 13.064 13.9861 14.3001V70.7955C10.7171 71.3805 7.60041 72.6195 4.82324 74.4377V14.3001C4.82324 10.6377 6.28043 7.12559 8.87418 4.53593C11.4679 1.94627 14.9857 0.491211 18.6539 0.491211ZM73.6824 76.9924H33.9194C34.8037 77.8411 35.6189 78.759 36.3571 79.7371H73.717C74.0838 79.7371 74.4356 79.5915 74.695 79.3326C74.9544 79.0736 75.1001 78.7224 75.1001 78.3561C75.1002 78.1726 75.0633 77.9907 74.9914 77.8218C74.9196 77.6529 74.8142 77.5003 74.6819 77.373C74.5495 77.2457 74.3928 77.1463 74.221 77.0809C74.0493 77.0155 73.8661 76.9855 73.6824 76.9924ZM60.8201 88.3844H40.6101C40.8647 89.2868 41.0668 90.2033 41.2152 91.1291H60.8201C61.1869 91.1291 61.5387 90.9835 61.798 90.7245C62.0574 90.4655 62.2031 90.1143 62.2031 89.7481C62.2031 89.5675 62.1673 89.3887 62.0976 89.2222C62.0278 89.0556 61.9257 88.9048 61.797 88.778C61.6684 88.6511 61.5158 88.5509 61.3481 88.4834C61.1804 88.4159 61.0009 88.3821 60.8201 88.3844ZM12.5167 109.478L13.5785 110.717C13.4607 110.641 13.3535 110.549 13.2601 110.444L12.4449 109.486L12.5167 109.478ZM9.57767 109.081C9.59116 109.109 9.60583 109.136 9.6216 109.162C9.37162 109.011 9.17012 108.791 9.04178 108.528L8.44632 107.31L8.74787 107.355L9.57767 109.081ZM5.63599 118.66C6.58684 114.897 7.53773 111.117 8.29205 107.287L6.88071 107.078C6.66723 107.045 6.46882 106.948 6.31148 106.8C6.15414 106.652 6.04524 106.46 5.99904 106.25L5.6187 104.403L3.88987 103.695C3.6873 103.61 3.51565 103.466 3.39815 103.28C3.28065 103.095 3.22297 102.878 3.23291 102.659V100.778L1.72884 99.6558C1.55832 99.5223 1.43235 99.3406 1.36754 99.1341C1.30273 98.9276 1.30208 98.7063 1.36575 98.4995L1.90173 96.7734L0.743393 95.306C0.617697 95.1263 0.550293 94.9124 0.550293 94.6933C0.550293 94.4741 0.617697 94.2602 0.743393 94.0805L1.72884 92.4926L0.950844 90.7665C0.865699 90.5682 0.8416 90.349 0.881623 90.1369C0.921646 89.9249 1.02399 89.7295 1.1756 89.5756L2.52408 88.2638L2.21291 86.4167C2.17111 86.2015 2.19879 85.9785 2.29199 85.78C2.3852 85.5814 2.53909 85.4178 2.73153 85.3122L4.35663 84.38L4.51222 82.5157C4.52879 82.2969 4.61233 82.0884 4.75149 81.9186C4.89064 81.7487 5.07871 81.6258 5.29022 81.5663L7.01904 81.0829L7.62414 79.3568C7.69465 79.15 7.82685 78.9697 8.00301 78.8401C8.17917 78.7105 8.3908 78.6379 8.60953 78.632H10.494L11.5313 77.0786C11.6251 76.93 11.7553 76.8075 11.9095 76.723C12.0638 76.6384 12.237 76.5946 12.413 76.5953H12.4648L14.2801 77.0441L15.6805 75.7841C15.7744 75.6934 15.8854 75.622 16.0071 75.5746C16.1288 75.5272 16.2587 75.5044 16.3893 75.5076C16.564 75.5043 16.7366 75.5461 16.8906 75.6286L18.6195 76.5089L20.3483 75.6286C20.5023 75.5461 20.6749 75.5043 20.8497 75.5076C20.9802 75.5044 21.1102 75.5272 21.2318 75.5746C21.3535 75.622 21.4646 75.6934 21.5585 75.7841L22.9588 77.0441L24.7914 76.5953H25.0334C25.2093 76.5946 25.3826 76.6384 25.5369 76.723C25.6911 76.8075 25.8213 76.93 25.9151 77.0786L26.9524 78.632H28.8368C29.0562 78.6354 29.269 78.7072 29.4457 78.8372C29.6223 78.9671 29.754 79.1486 29.8223 79.3568L30.4274 81.0829L32.2426 81.5663C32.4541 81.6258 32.6422 81.7487 32.7813 81.9186C32.9205 82.0884 33.004 82.2969 33.0206 82.5157L33.1762 84.38L34.8013 85.3122C34.9937 85.4178 35.1476 85.5814 35.2408 85.78C35.334 85.9785 35.3617 86.2015 35.3199 86.4167L35.0088 88.2638L36.3572 89.5756C36.513 89.7269 36.6182 89.9225 36.6584 90.1357C36.6987 90.3489 36.672 90.5691 36.582 90.7665L35.804 92.4926L36.7894 94.0805C36.9151 94.2602 36.9825 94.4741 36.9825 94.6933C36.9825 94.9124 36.9151 95.1263 36.7894 95.306L35.6138 96.7734L36.167 98.4995C36.2241 98.7082 36.2184 98.9294 36.1508 99.1349C36.0832 99.3405 35.9566 99.5214 35.7867 99.6558L34.2826 100.778L34.3691 102.659C34.379 102.878 34.3213 103.095 34.2038 103.28C34.0864 103.466 33.9147 103.61 33.7121 103.695L31.9833 104.403L31.5857 106.25C31.5417 106.461 31.4335 106.655 31.2757 106.803C31.118 106.951 30.9183 107.047 30.7039 107.078L29.0571 107.322C29.7887 111.113 30.6661 114.892 31.6892 118.66C29.6838 118.211 27.6784 117.728 25.673 117.228C24.1516 118.626 22.6475 120.041 21.1607 121.509C20.2955 118.319 19.5264 115.108 18.8533 111.876C18.8331 111.877 18.8127 111.878 18.7923 111.878C18.6925 111.878 18.5937 111.863 18.4989 111.836C17.8373 115.072 17.0333 118.306 16.1646 121.509C14.6778 120.041 13.1737 118.626 11.6523 117.228C9.64688 117.728 7.64143 118.211 5.63599 118.66ZM28.8368 107.355L28.9381 107.34L28.3353 108.528C28.2751 108.654 28.1981 108.769 28.1071 108.873L28.8368 107.355ZM18.6886 109.081C15.6284 109.081 12.6368 108.174 10.0923 106.477C7.54777 104.779 5.56452 102.367 4.39341 99.5437C3.22229 96.7208 2.91587 93.6145 3.5129 90.6178C4.10993 87.621 5.58361 84.8684 7.74755 82.7079C9.91148 80.5473 12.6685 79.0763 15.67 78.4803C18.6714 77.8842 21.7826 78.1901 24.6099 79.3593C27.4372 80.5286 29.8538 82.5087 31.5539 85.0492C33.2541 87.5898 34.1616 90.5763 34.1616 93.6317C34.1389 97.722 32.5014 101.638 29.6046 104.531C26.7077 107.423 22.7853 109.058 18.6886 109.081ZM32.986 20.1173H59.6099C59.7916 20.1173 59.9714 20.0814 60.1392 20.012C60.307 19.9426 60.4595 19.841 60.5879 19.7128C60.7164 19.5845 60.8182 19.4323 60.8877 19.2648C60.9572 19.0973 60.993 18.9177 60.993 18.7364C60.993 18.5558 60.9571 18.377 60.8874 18.2104C60.8177 18.0439 60.7155 17.8927 60.5869 17.7658C60.4582 17.639 60.3056 17.5388 60.1379 17.4713C59.9702 17.4038 59.7907 17.3704 59.6099 17.3727H32.986C32.6238 17.3727 32.2764 17.5164 32.0203 17.7722C31.7642 18.0279 31.6202 18.3747 31.6202 18.7364C31.6179 18.9169 31.6516 19.0961 31.7192 19.2635C31.7868 19.431 31.8871 19.583 32.0141 19.7115C32.1412 19.84 32.2925 19.9424 32.4594 20.012C32.6262 20.0816 32.8052 20.1173 32.986 20.1173ZM73.6826 31.1989H21.1954C21.0146 31.1989 20.8356 31.1631 20.6688 31.0935C20.5019 31.0239 20.3506 30.9219 20.2235 30.7935C20.0965 30.665 19.9962 30.5125 19.9286 30.3451C19.861 30.1776 19.8274 29.9984 19.8297 29.8179C19.8297 29.4562 19.9736 29.1094 20.2297 28.8537C20.4859 28.598 20.8332 28.4542 21.1954 28.4542H73.6826C73.8634 28.4519 74.0429 28.4857 74.2106 28.5532C74.3783 28.6207 74.5309 28.721 74.6596 28.8478C74.7883 28.9747 74.8904 29.1254 74.9601 29.292C75.0298 29.4586 75.0657 29.6374 75.0657 29.8179C75.0657 30.1841 74.92 30.5353 74.6606 30.7943C74.4012 31.0533 74.0495 31.1989 73.6826 31.1989ZM21.1954 42.5221H73.6826C74.0495 42.5221 74.4012 42.3765 74.6606 42.1176C74.92 41.8586 75.0657 41.5074 75.0657 41.1411C75.0657 40.9606 75.0298 40.7818 74.9601 40.6152C74.8904 40.4486 74.7883 40.2975 74.6596 40.1706C74.5309 40.0438 74.3783 39.944 74.2106 39.8765C74.0429 39.809 73.8634 39.7752 73.6826 39.7775H21.1954C20.8332 39.7775 20.4859 39.9212 20.2297 40.177C19.9736 40.4327 19.8297 40.7795 19.8297 41.1411C19.8274 41.3217 19.861 41.5009 19.9286 41.6683C19.9962 41.8358 20.0965 41.9883 20.2235 42.1167C20.3506 42.2452 20.5019 42.3472 20.6688 42.4168C20.8356 42.4864 21.0146 42.5221 21.1954 42.5221ZM73.6826 54.674H21.1954C21.0146 54.674 20.8356 54.6378 20.6688 54.5682C20.5019 54.4986 20.3506 54.3966 20.2235 54.2682C20.0965 54.1397 19.9962 53.9876 19.9286 53.8202C19.861 53.6527 19.8274 53.4735 19.8297 53.293C19.8297 52.9313 19.9736 52.5845 20.2297 52.3288C20.4859 52.0731 20.8332 51.9293 21.1954 51.9293H73.6826C73.8634 51.927 74.0429 51.9604 74.2106 52.0279C74.3783 52.0954 74.5309 52.1956 74.6596 52.3225C74.7883 52.4493 74.8904 52.6005 74.9601 52.7671C75.0298 52.9337 75.0657 53.1125 75.0657 53.293C75.0657 53.6592 74.92 54.0104 74.6606 54.2694C74.4012 54.5284 74.0495 54.674 73.6826 54.674ZM21.1954 66.8254H73.6826C74.0495 66.8254 74.4012 66.6802 74.6606 66.4213C74.92 66.1623 75.0657 65.8111 75.0657 65.4449C75.0657 65.2643 75.0298 65.0855 74.9601 64.9189C74.8904 64.7524 74.7883 64.6012 74.6596 64.4743C74.5309 64.3475 74.3783 64.2473 74.2106 64.1798C74.0429 64.1123 73.8634 64.0789 73.6826 64.0812H21.1954C20.8332 64.0812 20.4859 64.2249 20.2297 64.4807C19.9736 64.7364 19.8297 65.0832 19.8297 65.4449C19.8274 65.6254 19.861 65.8046 19.9286 65.972C19.9962 66.1395 20.0965 66.2915 20.2235 66.42C20.3506 66.5485 20.5019 66.6504 20.6688 66.72C20.8356 66.7896 21.0146 66.8254 21.1954 66.8254ZM18.0988 98.8463L13.8307 90.5939C13.6502 90.2929 13.3617 90.072 13.0239 89.9756C12.686 89.8793 12.3242 89.9151 12.0117 90.0755C11.6992 90.2359 11.4596 90.5088 11.3415 90.8391C11.2234 91.1695 11.2356 91.5322 11.3757 91.8539L16.8215 102.383C16.94 102.606 17.1167 102.793 17.3328 102.924C17.5489 103.054 17.7964 103.124 18.049 103.125C18.1312 103.125 18.2129 103.118 18.2931 103.103C18.5029 103.084 18.7063 103.018 18.8875 102.908C19.1039 102.777 19.2803 102.59 19.3973 102.366L26.762 87.8667C26.8861 87.5474 26.8868 87.1933 26.7641 86.8734C26.6414 86.5536 26.404 86.2909 26.098 86.136C25.792 85.9811 25.4394 85.9451 25.1084 86.0352C24.7775 86.1254 24.4919 86.3354 24.3071 86.624L18.0988 98.8463Z" fill="url(#paint0_linear_2_2763)"/>
    <defs>
        <linearGradient id="paint0_linear_2_2763" x1="8.93515" y1="-4.14766" x2="85.7161" y2="123.335" gradientUnits="userSpaceOnUse">
            <stop stop-color="#437FEC"/>
            <stop offset="0.38" stop-color="#356FD8"/>
            <stop offset="1" stop-color="#184EAE"/>
        </linearGradient>
    </defs>
</svg>