<svg xmlns="http://www.w3.org/2000/svg" width="146" height="121" viewBox="0 0 146 121" fill="none">
    <path fill-rule="evenodd" clip-rule="evenodd" d="M14.8974 16.337L14.8312 0L24.7461 19.4534L40.382 29.3271C42.2653 26.6552 44.3783 24.1362 46.7044 21.8011C54.8002 13.6744 65.1148 8.14023 76.3438 5.89807C87.5729 3.65592 99.2122 4.80667 109.79 9.20482C120.367 13.603 129.408 21.051 135.769 30.6071C142.13 40.1631 145.525 51.3977 145.525 62.8906C145.525 78.3021 139.426 93.0825 128.57 103.98C117.714 114.878 102.99 121 87.6372 121C76.1881 121 64.9961 117.592 55.4765 111.207C45.957 104.822 38.5374 95.7463 34.156 85.1282C29.7747 74.5102 28.6283 62.8262 30.8619 51.5541C32.1652 44.9769 34.585 38.7123 37.983 33.0203L23.0754 23.6065L0.475098 23.8912L14.8974 16.337ZM42.3004 44.106C43.2086 41.9049 44.2709 39.7821 45.4755 37.7516L54.5017 43.4514C52.3499 47.138 50.812 51.1779 49.9721 55.4133C48.4889 62.892 49.2484 70.6441 52.1547 77.6894C55.0609 84.7347 59.9833 90.7565 66.2992 94.9933C72.6151 99.2301 80.0409 101.492 87.6372 101.492C97.8171 101.483 107.578 97.4208 114.778 90.1965C121.977 82.9723 126.028 73.1759 126.041 62.957C126.045 55.3316 123.795 47.8764 119.577 41.5345C115.359 35.1926 109.363 30.2486 102.345 27.3282C95.3282 24.4078 87.6059 23.642 80.1551 25.1277C72.7043 26.6133 65.8597 30.2837 60.4871 35.6746C59.2034 36.9627 58.0174 38.3352 56.9356 39.7802L47.8898 34.068C51.2873 29.3577 55.5069 25.2635 60.3741 21.9989C68.444 16.5861 77.9316 13.6972 87.6372 13.6972C100.648 13.7104 113.122 18.9042 122.322 28.1394C131.522 37.3745 136.696 49.8965 136.709 62.9571C136.709 72.6998 133.831 82.2235 128.439 90.3242C123.047 98.425 115.383 104.739 106.416 108.467C97.4495 112.196 87.5827 113.171 78.0637 111.27C68.5446 109.37 59.8008 104.678 52.938 97.7889C46.0751 90.8998 41.4014 82.1227 39.508 72.5672C37.6145 63.0117 38.5862 53.1071 42.3004 44.106ZM60.2396 51.565C60.7275 50.3824 61.2891 49.2372 61.9192 48.1354L80.125 59.6319C79.7014 60.6473 79.4668 61.7659 79.4668 62.9407C79.4668 67.5804 83.1248 71.3417 87.6372 71.3417C92.1496 71.3417 95.8076 67.5804 95.8076 62.9407C95.8076 58.301 92.1496 54.5398 87.6372 54.5398C85.8452 54.5398 84.1879 55.133 82.841 56.1388L64.3834 44.4833C66.2926 42.0617 68.576 39.9399 71.1617 38.2055C76.0385 34.9345 81.772 33.1886 87.6372 33.1886C95.5009 33.193 103.041 36.3306 108.602 41.9123C114.162 47.494 117.288 55.0633 117.292 62.957C117.292 68.8447 115.553 74.6002 112.294 79.4956C109.036 84.391 104.404 88.2065 98.9857 90.4596C93.567 92.7127 87.6043 93.3021 81.8518 92.1535C76.0993 91.0049 70.8153 88.1698 66.6679 84.0066C62.5206 79.8434 59.6963 74.5392 58.552 68.7647C57.4078 62.9902 57.9951 57.0045 60.2396 51.565Z" fill="url(#paint0_linear_2_532)"/>
    <defs>
        <linearGradient id="paint0_linear_2_532" x1="14.156" y1="-4.6382" x2="70.5797" y2="148.238" gradientUnits="userSpaceOnUse">
            <stop stop-color="#437FEC"/>
            <stop offset="0.38" stop-color="#356FD8"/>
            <stop offset="1" stop-color="#184EAE"/>
        </linearGradient>
    </defs>
</svg>