<svg xmlns="http://www.w3.org/2000/svg" width="148" height="123" viewBox="0 0 148 123" fill="none">
    <path fill-rule="evenodd" clip-rule="evenodd" d="M5.40571 104.851C4.15907 104.842 2.96697 104.339 2.09045 103.452C1.21393 102.566 0.72442 101.368 0.72916 100.121L1.1559 4.95439C1.16525 3.70919 1.66529 2.51786 2.54747 1.63902C3.42965 0.760171 4.62283 0.2649 5.86805 0.260254C7.11469 0.269654 8.3068 0.772468 9.18332 1.65899C10.0598 2.54551 10.5493 3.74332 10.5446 4.98999L10.1001 100.157C10.0954 101.4 9.59924 102.592 8.71989 103.471C7.84055 104.35 6.64929 104.847 5.40571 104.851ZM142.932 122.739L5.35657 122.277C4.10685 122.277 2.90829 121.781 2.0246 120.897C1.14091 120.013 0.644531 118.815 0.644531 117.565C0.644531 116.315 1.14091 115.117 2.0246 114.233C2.90829 113.35 4.10685 112.853 5.35657 112.853L142.932 113.333C144.13 113.407 145.254 113.934 146.076 114.808C146.898 115.682 147.355 116.836 147.355 118.036C147.355 119.236 146.898 120.39 146.076 121.264C145.254 122.138 144.13 122.666 142.932 122.739ZM19.2439 104.371C19.5051 104.47 19.7827 104.518 20.0619 104.513C20.5422 104.517 21.012 104.372 21.4067 104.098C21.8014 103.825 22.1018 103.436 22.2668 102.984L32.7928 74.5386L51.8197 98.0053C51.9307 98.1426 52.0565 98.2666 52.1945 98.3751C52.2003 98.3884 52.2062 98.4016 52.2122 98.4147C52.4719 98.9806 52.9443 99.4213 53.5269 99.6411C53.787 99.7455 54.0644 99.8 54.3447 99.8013C54.8162 99.8078 55.2788 99.6724 55.6721 99.4123C56.0654 99.1522 56.3712 98.7794 56.5498 98.3431L76.4923 44.3074L91.7037 64.363C91.9135 64.6389 92.1818 64.8648 92.4893 65.0246C92.7967 65.1845 93.1356 65.2744 93.4819 65.2877C94.0259 65.3064 94.5597 65.1368 94.9933 64.8076C95.2418 64.6236 95.4512 64.3918 95.6093 64.126C95.7673 63.8602 95.871 63.5657 95.914 63.2595C95.9298 63.1473 95.9373 63.0343 95.9366 62.9216L113.522 16.6728C113.69 16.1011 113.635 15.4872 113.37 14.9537C113.105 14.4202 112.648 14.0062 112.091 13.795C111.533 13.5839 110.917 13.591 110.365 13.8146C109.813 14.0382 109.365 14.4621 109.112 15.0015L92.7709 57.9781L77.923 38.4018C77.5457 37.9043 76.9864 37.5769 76.3678 37.4919C75.7492 37.4069 75.1221 37.5713 74.6246 37.9486C74.3507 38.1563 74.1284 38.419 73.9697 38.7165C73.8438 38.8073 73.7268 38.9106 73.6208 39.025C73.4107 39.2514 73.2474 39.5168 73.14 39.8064L53.5884 92.6995L34.1449 68.7191C33.9599 68.4505 33.7214 68.223 33.4443 68.051C33.1672 67.879 32.8575 67.7663 32.5347 67.7198C32.212 67.6732 31.8831 67.6939 31.5687 67.7806C31.2543 67.8672 30.9612 68.018 30.7078 68.2234C30.6453 68.2741 30.5856 68.3278 30.5287 68.3844C30.3736 68.4884 30.2311 68.6109 30.1045 68.7494C29.8953 68.978 29.7335 69.2458 29.6284 69.5373L17.857 101.348C17.6437 101.933 17.6696 102.579 17.9293 103.145C18.1889 103.711 18.6613 104.152 19.2439 104.371Z" fill="url(#paint0_linear_2_2729)"/>
    <defs>
        <linearGradient id="paint0_linear_2_2729" x1="14.4821" y1="-4.43465" x2="71.6288" y2="150.282" gradientUnits="userSpaceOnUse">
            <stop stop-color="#437FEC"/>
            <stop offset="0.38" stop-color="#356FD8"/>
            <stop offset="1" stop-color="#184EAE"/>
        </linearGradient>
    </defs>
</svg>