<svg xmlns="http://www.w3.org/2000/svg" width="112" height="122" viewBox="0 0 112 122" fill="none">
    <path fill-rule="evenodd" clip-rule="evenodd" d="M39.2089 57.6787C44.3579 61.1118 50.4116 62.9441 56.6044 62.9441C64.9057 62.9349 72.8645 59.6399 78.7344 53.7826C82.4965 50.0286 85.2037 45.4185 86.6653 40.4109C88.892 40.2846 90.6587 38.4392 90.6587 36.1811V28.2306C90.6587 26.072 89.0442 24.2904 86.9567 24.0274C86.0853 20.5951 84.6309 17.3172 82.6386 14.3419C79.1981 9.20392 74.308 5.19934 68.5867 2.83457C62.8653 0.469796 56.5697 -0.148552 50.4959 1.057C44.4222 2.26255 38.8431 5.23819 34.4641 9.60772C30.4756 13.5876 27.646 18.561 26.2602 23.9961C26.2148 23.9946 26.1691 23.9939 26.1233 23.9939C23.7832 23.9939 21.8862 25.8908 21.8862 28.2306V36.1811C21.8862 38.521 23.7832 40.4178 26.1233 40.4178C26.2609 40.4178 26.3969 40.4113 26.5311 40.3984C26.8514 41.5012 27.2334 42.5891 27.6767 43.6569C30.0466 49.366 34.0598 54.2456 39.2089 57.6787ZM44.3585 13.4136C47.9824 10.9937 52.2439 9.70055 56.6044 9.69711C62.4541 9.6971 68.0646 12.0149 72.2027 16.1408C76.3407 20.2667 78.6677 25.8628 78.6724 31.7001C78.6724 36.0511 77.3796 40.3045 74.9574 43.9225C72.5352 47.5406 69.0925 50.3609 65.0643 52.0267C61.0361 53.6926 56.6033 54.1296 52.3264 53.282C48.0495 52.4344 44.1204 50.3403 41.0359 47.2648C39.2782 45.5123 37.8398 43.486 36.7697 41.2773L47.0876 44.4802C47.6485 46.1617 49.2409 47.3745 51.1178 47.3745H59.0855C61.4304 47.3745 63.3312 45.4816 63.3312 43.1465C63.3312 40.8114 61.4304 38.9185 59.0855 38.9185H51.1178C50.0228 38.9185 49.0246 39.3313 48.2717 40.0091L34.973 35.881C34.1528 31.6519 34.5944 27.2743 36.2448 23.2919C37.9111 19.2711 40.7346 15.8334 44.3585 13.4136ZM56.3947 76.4739C46.8206 76.6053 37.4777 73.5366 29.8537 67.7563L29.8188 67.7912C20.8912 73.407 14.2766 82.0299 11.1753 92.0957C9.21508 98.6266 8.7258 105.509 9.74256 112.251H102.348C103.454 103.792 102.235 95.1913 98.8218 87.3696C95.4088 79.5479 89.9299 72.7989 82.9707 67.8436C75.2917 73.5342 65.9593 76.5647 56.3947 76.4739ZM80.4896 57.7834H84.1938L84.1588 57.7485C96.3525 64.6831 105.405 76.0325 109.442 89.4455C112.677 99.8797 112.835 111.022 109.896 121.544H2.36914C-0.776691 111.074 -0.776691 99.9147 2.36914 89.4455C6.59369 75.8421 16.041 64.4595 28.648 57.7834H32.3522C38.8844 63.8662 47.4863 67.2489 56.4209 67.2489C65.3556 67.2489 73.9575 63.8662 80.4896 57.7834Z" fill="url(#paint0_linear_2_485)"/>
    <defs>
        <linearGradient id="paint0_linear_2_485" x1="10.5716" y1="-4.185" x2="78.2444" y2="137.265" gradientUnits="userSpaceOnUse">
            <stop stop-color="#437FEC"/>
            <stop offset="0.38" stop-color="#356FD8"/>
            <stop offset="1" stop-color="#184EAE"/>
        </linearGradient>
    </defs>
</svg>