<svg xmlns="http://www.w3.org/2000/svg" width="114" height="120" viewBox="0 0 114 120" fill="none">
    <path d="M76.8489 8.37711C80.3757 8.37283 83.8693 9.05734 87.1328 10.3924L70.7067 27.603L87.1153 43.1487L102.997 26.4114C104.923 31.6539 105.226 37.3531 103.869 42.77C102.512 48.1869 99.556 53.0715 95.3855 56.7908C91.2149 60.51 86.0216 62.892 80.479 63.6283C74.9364 64.3645 69.3002 63.421 64.3011 60.9198L25.6925 109.396C23.726 110.837 21.3574 111.628 18.9185 111.657C11.8988 111.657 6.38829 104.647 11.1617 96.3221L53.9471 51.8064C51.0917 47.6464 49.4259 42.7879 49.1287 37.7531C48.8315 32.7184 49.9142 27.698 52.2603 23.2318C54.6065 18.7656 58.1274 15.0225 62.4443 12.4052C66.7613 9.78784 71.711 8.39526 76.7612 8.37711H76.8489ZM76.7612 0.0347509C70.7722 0.0438895 64.8792 1.53819 59.6112 4.38329C54.3432 7.22838 49.8651 11.3351 46.5788 16.3352C43.2925 21.3354 41.3009 27.0725 40.7828 33.0311C40.2647 38.9897 41.2364 44.9834 43.6105 50.4744L5.0896 90.5209L4.38769 91.2573L3.89625 92.1336C2.08956 94.9643 1.07918 98.2282 0.971109 101.583C0.863034 104.938 1.66128 108.261 3.28207 111.202C4.89039 113.895 7.17678 116.121 9.91385 117.659C12.6509 119.196 15.7432 119.991 18.8834 119.965C23.0497 119.935 27.1039 118.612 30.4836 116.179L31.4663 115.495L32.2209 114.549L66.9686 70.8393C73.3968 72.6352 80.1965 72.6259 86.6197 70.8123C93.0429 68.9988 98.8407 65.4512 103.376 60.5599C107.911 55.6687 111.007 49.6233 112.324 43.0884C113.642 36.5534 113.129 29.782 110.842 23.5193L106.191 10.8832L96.9254 20.6628L86.7994 31.3362L82.5525 27.3052L93.205 16.1585L101.664 7.27275L90.2917 2.6461C86.0232 0.91176 81.4572 0.0247915 76.8489 0.0347509H76.7612Z" fill="url(#paint0_linear_2_2761)"/>
    <defs>
        <linearGradient id="paint0_linear_2_2761" x1="11.5324" y1="-4.56254" x2="78.1181" y2="136.079" gradientUnits="userSpaceOnUse">
            <stop stop-color="#437FEC"/>
            <stop offset="0.38" stop-color="#356FD8"/>
            <stop offset="1" stop-color="#184EAE"/>
        </linearGradient>
    </defs>
</svg>