<svg xmlns="http://www.w3.org/2000/svg" width="243" height="184" viewBox="0 0 243 184" fill="none">
    <g clip-path="url(#clip0_2_444)">
        <path d="M42.7841 183.365C33.9945 183.017 27.3673 180.533 22.9024 175.912C18.4375 171.292 16.2049 163.686 16.2049 153.096V122.106C16.2049 105.653 10.8033 96.6235 0 95.0171V88.3472C10.8116 86.8237 16.2132 78.386 16.2049 63.0341V30.3184C16.2049 19.761 18.4375 12.1555 22.9024 7.50189C27.3673 2.84833 33.9945 0.364215 42.7841 0.0495605V8.80604C36.6933 9.15381 32.4017 11.1328 29.9092 14.743C27.4168 18.3533 26.1788 24.5635 26.1953 33.3739V63.9036C26.1953 79.3134 21.1774 88.5501 11.1417 91.6139V92.0362C21.1774 95.2241 26.1953 104.983 26.1953 121.311V150.065C26.1953 158.884 27.4333 165.094 29.9092 168.696C32.3852 172.298 36.6768 174.277 42.7841 174.633V183.365Z" fill="#03224E"/>
        <path d="M50.9175 12.731H58.5433L67.63 29.2131H67.989L77.0633 12.731H84.6643L71.1582 36.0816V49.9802H64.4484V36.0816L50.9175 12.731Z" fill="#03224E"/>
        <path d="M96.1032 50.5269C93.6271 50.5864 91.1822 49.9635 89.0344 48.726C87.0409 47.5255 85.4337 45.775 84.4044 43.6833C83.3194 41.3079 82.7578 38.7258 82.7578 36.1129C82.7578 33.5 83.3194 30.9179 84.4044 28.5426C85.4264 26.4427 87.0351 24.6863 89.0344 23.4874C91.2054 22.309 93.6348 21.6919 96.1032 21.6919C98.5715 21.6919 101.001 22.309 103.172 23.4874C105.169 24.6897 106.776 26.4451 107.802 28.5426C108.879 30.9201 109.436 33.5013 109.436 36.1129C109.436 38.7244 108.879 41.3058 107.802 43.6833C106.769 45.7722 105.162 47.5217 103.172 48.726C101.023 49.96 98.5788 50.5826 96.1032 50.5269ZM96.1032 45.2482C97.4498 45.2963 98.7686 44.8553 99.8171 44.0061C100.848 43.131 101.619 41.988 102.045 40.7023C103.02 37.6953 103.02 34.456 102.045 31.449C101.616 30.1577 100.846 29.0073 99.8171 28.1203C98.7686 27.2711 97.4498 26.8301 96.1032 26.8782C94.7583 26.8421 93.4436 27.2818 92.3893 28.1203C91.3525 29.0004 90.5808 30.1531 90.1609 31.449C89.1703 34.4533 89.1703 37.6979 90.1609 40.7023C90.5777 41.9927 91.3503 43.1382 92.3893 44.0061C93.4535 44.853 94.7828 45.2932 96.1403 45.2482H96.1032Z" fill="#03224E"/>
        <path d="M132.734 38.2305V22.0837H139.296V50.0176H132.933V45.0493H132.635C132.01 46.6069 130.937 47.9429 129.553 48.8873C127.987 49.9199 126.14 50.4405 124.267 50.3777C122.575 50.4104 120.906 49.9811 119.439 49.1357C118.019 48.2916 116.879 47.0477 116.158 45.5586C115.332 43.775 114.93 41.8236 114.982 39.8576V22.0464H121.543V38.8142C121.463 40.3531 121.983 41.8631 122.992 43.0248C123.478 43.5449 124.07 43.954 124.728 44.224C125.386 44.4941 126.094 44.6188 126.805 44.5898C127.785 44.5865 128.749 44.3435 129.615 43.8818C130.535 43.3903 131.309 42.6614 131.855 41.7703C132.473 40.6962 132.778 39.4697 132.734 38.2305Z" fill="#03224E"/>
        <path d="M146.03 49.9803V22.0465H152.393V26.7042H152.691C153.122 25.2044 154.042 23.8927 155.303 22.978C156.543 22.0989 158.03 21.6378 159.549 21.6614H160.787C161.169 21.6857 161.549 21.7313 161.926 21.7981V27.8593C161.498 27.7298 161.058 27.6425 160.614 27.5985C160.04 27.5156 159.46 27.4741 158.88 27.4743C157.76 27.4563 156.653 27.7211 155.662 28.2443C154.736 28.7397 153.961 29.4781 153.421 30.3807C152.865 31.3372 152.583 32.4286 152.604 33.5355V49.9555L146.03 49.9803Z" fill="#03224E"/>
        <path d="M66.0333 111.425H53.4556V74.1632H66.2809C69.5883 74.0673 72.8641 74.8333 75.7884 76.3865C78.4215 77.8534 80.5527 80.0826 81.904 82.7831C83.3159 85.9195 84.0462 89.3215 84.0462 92.763C84.0462 96.2045 83.3159 99.6066 81.904 102.743C80.5358 105.462 78.3775 107.702 75.7141 109.164C72.7323 110.734 69.3996 111.512 66.0333 111.425ZM60.1777 105.587H65.6991C67.9429 105.668 70.1704 105.176 72.1736 104.159C73.9106 103.209 75.2826 101.706 76.0731 99.8862C77.8066 95.3052 77.8066 90.2457 76.0731 85.6647C75.2846 83.8693 73.9326 82.3818 72.2231 81.4292C70.2718 80.4301 68.0988 79.947 65.9095 80.0257H60.1777V105.587Z" fill="#03224E"/>
        <path d="M102.454 111.971C99.9361 112.037 97.446 111.433 95.2366 110.22C93.2264 109.062 91.6026 107.334 90.5694 105.252C89.4882 102.867 88.9287 100.277 88.9287 97.6566C88.9287 95.0364 89.4882 92.4466 90.5694 90.0615C91.5929 87.9647 93.1847 86.1997 95.1623 84.9691C97.26 83.7172 99.6671 83.0843 102.107 83.1432C103.765 83.1325 105.412 83.4143 106.972 83.9755C108.492 84.5218 109.877 85.3902 111.033 86.5217C112.268 87.7654 113.214 89.2665 113.806 90.9185C114.527 92.9501 114.871 95.097 114.821 97.253V99.2775H91.9683V94.831H108.495C108.502 93.6603 108.226 92.5052 107.69 91.465C107.177 90.4952 106.405 89.687 105.462 89.13C104.461 88.5427 103.316 88.2461 102.157 88.2729C100.908 88.2493 99.6797 88.5856 98.6162 89.2418C97.6337 89.8589 96.8209 90.7129 96.2517 91.7259C95.6933 92.7908 95.4002 93.9755 95.3975 95.1788V99.0415C95.357 100.484 95.6626 101.916 96.2888 103.215C96.8273 104.332 97.6906 105.258 98.7647 105.873C99.8995 106.504 101.181 106.822 102.479 106.792C103.358 106.804 104.233 106.666 105.066 106.382C105.819 106.117 106.507 105.693 107.084 105.14C107.644 104.583 108.068 103.902 108.322 103.153L114.512 103.848C114.143 105.427 113.385 106.888 112.308 108.096C111.163 109.341 109.743 110.299 108.161 110.891C106.342 111.602 104.406 111.968 102.454 111.971Z" fill="#03224E"/>
        <path d="M144.433 83.491L134.53 111.425H127.288L117.384 83.491H124.378L130.778 104.246H131.063L137.488 83.491H144.433Z" fill="#03224E"/>
        <path d="M182.427 92.8065C182.528 96.3707 181.759 99.9058 180.186 103.103C178.823 105.829 176.709 108.105 174.095 109.661C171.427 111.156 168.423 111.94 165.367 111.94C162.312 111.94 159.307 111.156 156.64 109.661C154.033 108.096 151.922 105.822 150.549 103.103C149.083 99.8718 148.325 96.3629 148.325 92.8127C148.325 89.2625 149.083 85.7535 150.549 82.5222C151.922 79.8033 154.033 77.5297 156.64 75.9642C159.309 74.473 162.313 73.6903 165.367 73.6903C168.422 73.6903 171.426 74.473 174.095 75.9642C176.709 77.5205 178.823 79.7965 180.186 82.5222C181.759 85.7153 182.528 89.2463 182.427 92.8065ZM175.667 92.8065C175.742 90.3552 175.295 87.9162 174.355 85.6522C173.601 83.8515 172.335 82.3135 170.715 81.2305C169.103 80.2479 167.254 79.7283 165.367 79.7283C163.481 79.7283 161.631 80.2479 160.019 81.2305C158.404 82.3153 157.143 83.8531 156.392 85.6522C154.643 90.2602 154.643 95.3528 156.392 99.9607C157.143 101.76 158.404 103.298 160.019 104.382C161.631 105.365 163.481 105.885 165.367 105.885C167.254 105.885 169.103 105.365 170.715 104.382C172.335 103.299 173.601 101.761 174.355 99.9607C175.292 97.6961 175.74 95.2575 175.667 92.8065Z" fill="#03224E"/>
        <path d="M188.53 121.895V83.491H194.979V88.1114H195.363C195.764 87.3381 196.245 86.6095 196.799 85.9378C197.476 85.1116 198.32 84.4386 199.275 83.963C200.529 83.3619 201.91 83.0762 203.298 83.1308C205.357 83.1042 207.378 83.6781 209.117 84.7827C210.931 85.9647 212.367 87.6466 213.252 89.6268C214.344 92.1034 214.869 94.7943 214.787 97.5014C214.861 100.185 214.345 102.853 213.276 105.314C212.411 107.329 210.989 109.053 209.179 110.282C207.431 111.412 205.39 111.999 203.311 111.971C201.945 112.019 200.588 111.743 199.349 111.164C198.405 110.688 197.564 110.029 196.873 109.226C196.307 108.565 195.813 107.845 195.4 107.078H195.128V121.982L188.53 121.895ZM194.967 97.4642C194.931 99.0795 195.191 100.688 195.735 102.209C196.165 103.454 196.937 104.552 197.963 105.376C198.98 106.149 200.228 106.552 201.503 106.519C202.82 106.561 204.111 106.144 205.155 105.339C206.176 104.492 206.942 103.379 207.371 102.122C207.892 100.625 208.148 99.0491 208.127 97.4642C208.154 95.892 207.903 94.3274 207.384 92.8437C206.959 91.5986 206.191 90.5002 205.168 89.6764C204.104 88.9437 202.844 88.5515 201.553 88.5515C200.262 88.5515 199.002 88.9437 197.938 89.6764C196.914 90.4808 196.14 91.5626 195.71 92.794C195.184 94.2936 194.929 95.8749 194.955 97.4642H194.967Z" fill="#03224E"/>
        <path d="M242.406 90.8811L236.427 91.527C236.242 90.9098 235.943 90.3328 235.548 89.8253C235.092 89.2833 234.515 88.8576 233.864 88.5833C232.897 88.1971 231.856 88.0324 230.817 88.1011C229.778 88.1699 228.768 88.4704 227.86 88.9808C227.444 89.2053 227.097 89.5386 226.855 89.9454C226.613 90.3522 226.485 90.8172 226.486 91.291C226.469 91.6704 226.542 92.0484 226.699 92.3939C226.856 92.7394 227.093 93.0426 227.389 93.2783C228.298 93.9089 229.333 94.3328 230.422 94.5204L235.164 95.5388C237.339 95.8794 239.378 96.8164 241.057 98.2465C241.696 98.8709 242.198 99.6216 242.533 100.451C242.868 101.281 243.027 102.171 243 103.066C243.016 104.742 242.476 106.376 241.465 107.711C240.376 109.118 238.925 110.2 237.268 110.841C235.302 111.634 233.197 112.018 231.078 111.971C228.181 112.109 225.309 111.36 222.846 109.822C221.837 109.142 220.985 108.254 220.344 107.218C219.704 106.181 219.291 105.02 219.132 103.811L225.532 103.19C225.754 104.346 226.416 105.371 227.377 106.047C228.488 106.739 229.785 107.073 231.091 107.003C232.396 107.06 233.688 106.727 234.805 106.047C235.226 105.805 235.577 105.458 235.827 105.041C236.076 104.623 236.214 104.148 236.228 103.662C236.237 103.282 236.159 102.906 236 102.561C235.842 102.217 235.606 101.914 235.312 101.675C234.481 101.036 233.509 100.61 232.477 100.433L227.724 99.4264C225.514 99.092 223.451 98.1114 221.794 96.607C221.157 95.9345 220.661 95.1404 220.336 94.2721C220.01 93.4037 219.862 92.4787 219.9 91.5518C219.85 89.9418 220.342 88.362 221.299 87.068C222.331 85.7416 223.705 84.7237 225.272 84.1244C227.146 83.3959 229.144 83.0415 231.153 83.081C233.898 82.9236 236.62 83.6598 238.915 85.1801C240.78 86.5465 242.034 88.5945 242.406 90.8811Z" fill="#03224E"/>
        <path d="M53.4556 135.632H61.6757L72.7059 162.622H73.1392L84.1571 135.632H92.3896V172.894H85.9273V147.283H85.5808L75.3304 172.757H70.5023L60.252 147.283H59.9053V172.931H53.4556V135.632Z" fill="#03224E"/>
        <path d="M111.776 173.366C109.258 173.434 106.767 172.829 104.559 171.615C102.546 170.46 100.921 168.731 99.8916 166.646C98.8145 164.262 98.2573 161.675 98.2573 159.057C98.2573 156.44 98.8145 153.853 99.8916 151.469C100.914 149.367 102.512 147.601 104.497 146.376C106.587 145.116 108.991 144.478 111.429 144.538C113.087 144.531 114.733 144.813 116.295 145.37C117.819 145.913 119.205 146.787 120.355 147.929C121.593 149.167 122.544 150.664 123.141 152.313C123.863 154.349 124.207 156.5 124.156 158.66V160.672H101.303V156.238H117.83C117.838 155.062 117.558 153.901 117.013 152.86C116.497 151.896 115.731 151.089 114.797 150.525C113.745 149.942 112.559 149.646 111.357 149.668C110.156 149.69 108.981 150.028 107.951 150.649C106.96 151.256 106.145 152.112 105.586 153.133C105.026 154.193 104.733 155.374 104.732 156.573V160.449C104.672 161.905 104.965 163.354 105.586 164.672C106.137 165.78 106.997 166.704 108.062 167.33C109.199 167.956 110.479 168.273 111.776 168.249C112.659 168.261 113.539 168.122 114.376 167.839C115.123 167.57 115.806 167.147 116.381 166.597C116.944 166.046 117.369 165.369 117.619 164.622L123.809 165.305C123.486 166.911 122.752 168.405 121.68 169.64C120.541 170.889 119.124 171.85 117.545 172.447C115.696 173.111 113.739 173.422 111.776 173.366Z" fill="#03224E"/>
        <path d="M136.226 156.511V172.882H129.665V144.948H135.941V149.693H136.263C136.875 148.16 137.948 146.858 139.333 145.966C140.905 144.998 142.726 144.515 144.57 144.575C146.325 144.538 148.058 144.967 149.596 145.817C151.035 146.651 152.195 147.897 152.926 149.394C153.788 151.168 154.212 153.123 154.164 155.095V172.882H147.603V156.114C147.7 154.52 147.181 152.95 146.154 151.73C145.647 151.191 145.028 150.77 144.342 150.495C143.656 150.221 142.918 150.099 142.18 150.14C141.113 150.123 140.06 150.384 139.123 150.897C138.233 151.403 137.51 152.158 137.043 153.071C136.489 154.131 136.208 155.314 136.226 156.511Z" fill="#03224E"/>
        <path d="M174.689 144.948V150.04H158.682V144.948H174.689ZM162.631 138.253H169.192V164.473C169.152 165.172 169.293 165.869 169.601 166.497C169.833 166.936 170.216 167.276 170.678 167.454C171.153 167.633 171.657 167.721 172.164 167.715C172.545 167.716 172.927 167.682 173.303 167.615C173.57 167.578 173.834 167.524 174.095 167.454L175.197 172.608C174.85 172.72 174.342 172.857 173.699 173.006C172.92 173.165 172.128 173.248 171.334 173.254C169.817 173.325 168.302 173.071 166.89 172.509C165.614 171.983 164.527 171.082 163.77 169.925C162.96 168.621 162.563 167.101 162.631 165.566V138.253Z" fill="#03224E"/>
        <path d="M192.033 173.366C189.558 173.43 187.113 172.811 184.964 171.578C182.971 170.377 181.363 168.627 180.334 166.535C179.249 164.157 178.687 161.573 178.687 158.958C178.687 156.343 179.249 153.759 180.334 151.382C181.363 149.287 182.97 147.532 184.964 146.327C187.135 145.148 189.565 144.531 192.033 144.531C194.501 144.531 196.931 145.148 199.102 146.327C201.096 147.532 202.703 149.287 203.732 151.382C204.817 153.759 205.379 156.343 205.379 158.958C205.379 161.573 204.817 164.157 203.732 166.535C202.702 168.627 201.095 170.377 199.102 171.578C196.953 172.811 194.508 173.43 192.033 173.366ZM192.033 168.1C193.379 168.145 194.697 167.704 195.747 166.858C196.774 165.982 197.541 164.839 197.963 163.554C198.465 162.066 198.712 160.504 198.693 158.933C198.711 157.355 198.464 155.785 197.963 154.288C197.535 153.003 196.769 151.857 195.747 150.972C194.697 150.126 193.379 149.685 192.033 149.73C190.688 149.696 189.374 150.135 188.319 150.972C187.293 151.857 186.524 153.002 186.091 154.288C185.589 155.785 185.342 157.355 185.36 158.933C185.341 160.504 185.588 162.066 186.091 163.554C186.517 164.84 187.288 165.983 188.319 166.858C189.377 167.721 190.707 168.178 192.07 168.15L192.033 168.1Z" fill="#03224E"/>
        <path d="M210.924 172.882V144.948H217.275V149.605H217.572C218 148.104 218.921 146.791 220.184 145.879C221.424 144.997 222.911 144.531 224.43 144.55H225.668C226.046 144.575 226.422 144.62 226.795 144.687V150.748C226.367 150.618 225.927 150.527 225.483 150.475C224.908 150.402 224.329 150.364 223.75 150.363C222.629 150.347 221.523 150.611 220.531 151.133C219.607 151.632 218.834 152.37 218.29 153.27C217.737 154.227 217.459 155.318 217.485 156.424V172.844L210.924 172.882Z" fill="#03224E"/>
    </g>
    <defs>
        <clipPath id="clip0_2_444">
            <rect width="243" height="183.365" fill="white"/>
        </clipPath>
    </defs>
</svg>