<svg xmlns="http://www.w3.org/2000/svg" width="134" height="100" viewBox="0 0 134 100" fill="none">
    <g clip-path="url(#clip0_301_1804)">
        <path d="M23.8328 99.9997C19.0393 99.8101 15.4251 98.4553 12.9901 95.9355C10.5551 93.4157 9.33755 89.2679 9.33755 83.4922V66.5919C9.33755 57.619 6.3917 52.6945 0.5 51.8185V48.181C6.3962 47.3501 9.34205 42.7485 9.33755 34.3762V16.5343C9.33755 10.7767 10.5551 6.62894 12.9901 4.09107C15.4251 1.55319 19.0393 0.198456 23.8328 0.0268555V4.8023C20.5111 4.99196 18.1706 6.07121 16.8113 8.0401C15.452 10.009 14.7769 13.3958 14.7859 18.2006V34.8504C14.7859 43.2543 12.0493 48.2916 6.57624 49.9625V50.1928C12.0493 51.9314 14.7859 57.2532 14.7859 66.1584V81.8395C14.7859 86.6488 15.461 90.0356 16.8113 92C18.1616 93.9644 20.5021 95.0437 23.8328 95.2378V99.9997Z" fill="#03224E"/>
        <path d="M28.2686 6.94287H32.4274L37.3829 15.9316H37.5787L42.5274 6.94287H46.6728L39.307 19.6774V27.2572H35.6478V19.6774L28.2686 6.94287Z" fill="#03224E"/>
        <path d="M52.9108 27.5556C51.5605 27.588 50.2271 27.2483 49.0558 26.5734C47.9686 25.9187 47.0921 24.9641 46.5308 23.8233C45.9391 22.5279 45.6328 21.1197 45.6328 19.6947C45.6328 18.2698 45.9391 16.8616 46.5308 15.5662C47.0882 14.421 47.9655 13.4631 49.0558 12.8093C50.2398 12.1666 51.5647 11.8301 52.9108 11.8301C54.257 11.8301 55.5819 12.1666 56.7658 12.8093C57.8547 13.4649 58.7315 14.4223 59.2909 15.5662C59.8782 16.8628 60.1822 18.2705 60.1822 19.6947C60.1822 21.119 59.8782 22.5267 59.2909 23.8233C58.7273 24.9625 57.8513 25.9166 56.7658 26.5734C55.5937 27.2464 54.261 27.586 52.9108 27.5556ZM52.9108 24.6768C53.6452 24.703 54.3644 24.4625 54.9363 23.9994C55.4986 23.5222 55.919 22.8988 56.1515 22.1976C56.6828 20.5577 56.6828 18.7911 56.1515 17.1512C55.9175 16.447 55.4975 15.8196 54.9363 15.3359C54.3644 14.8728 53.6452 14.6322 52.9108 14.6585C52.1774 14.6388 51.4604 14.8786 50.8854 15.3359C50.32 15.8159 49.8991 16.4445 49.6702 17.1512C49.1299 18.7897 49.1299 20.5592 49.6702 22.1976C49.8974 22.9013 50.3188 23.5261 50.8854 23.9994C51.4658 24.4612 52.1907 24.7013 52.9311 24.6768H52.9108Z" fill="#03224E"/>
        <path d="M72.8885 20.8496V12.0438H76.4667V27.2778H72.9966V24.5683H72.8345C72.4933 25.4178 71.9082 26.1463 71.1534 26.6614C70.2992 27.2246 69.2922 27.5085 68.2706 27.4742C67.348 27.4921 66.4378 27.2579 65.6376 26.7969C64.8635 26.3365 64.2414 25.6582 63.8484 24.846C63.3979 23.8733 63.1784 22.8091 63.2071 21.7369V12.0234H66.7853V21.1679C66.7416 22.0072 67.0248 22.8306 67.5752 23.4642C67.8404 23.7479 68.1634 23.9709 68.5223 24.1182C68.8811 24.2655 69.2673 24.3335 69.6546 24.3177C70.1892 24.3159 70.7152 24.1834 71.1872 23.9316C71.6892 23.6635 72.111 23.266 72.4091 22.7801C72.746 22.1943 72.9121 21.5254 72.8885 20.8496Z" fill="#03224E"/>
        <path d="M80.1392 27.2575V12.0234H83.6094V14.5636H83.7714C84.0069 13.7457 84.5083 13.0303 85.1959 12.5315C85.8725 12.052 86.6835 11.8006 87.5117 11.8135H88.1868C88.3951 11.8267 88.6024 11.8516 88.8079 11.888V15.1935C88.5746 15.1229 88.3349 15.0753 88.0923 15.0513C87.7793 15.0061 87.4634 14.9834 87.1471 14.9835C86.5361 14.9737 85.9325 15.1181 85.3918 15.4035C84.8868 15.6737 84.4644 16.0764 84.1698 16.5686C83.8668 17.0903 83.7126 17.6855 83.7241 18.2891V27.2439L80.1392 27.2575Z" fill="#03224E"/>
        <path d="M36.5117 60.7669H29.6523V40.4458H36.6468C38.4505 40.3935 40.237 40.8112 41.8318 41.6583C43.2678 42.4582 44.4301 43.674 45.167 45.1467C45.937 46.8572 46.3353 48.7125 46.3353 50.5894C46.3353 52.4662 45.937 54.3216 45.167 56.0321C44.4209 57.5152 43.2438 58.7363 41.7913 59.534C40.1651 60.3902 38.3476 60.8146 36.5117 60.7669ZM33.3183 57.5832H36.3295C37.5532 57.6271 38.768 57.3591 39.8604 56.8043C40.8077 56.2862 41.556 55.4664 41.9871 54.4741C42.9324 51.9758 42.9324 49.2165 41.9871 46.7182C41.5571 45.7391 40.8197 44.9279 39.8874 44.4084C38.8233 43.8635 37.6382 43.6 36.4442 43.6429H33.3183V57.5832Z" fill="#03224E"/>
        <path d="M56.3746 61.0646C55.0015 61.1006 53.6435 60.771 52.4386 60.1095C51.3423 59.478 50.4567 58.5353 49.8933 57.4C49.3036 56.0993 48.9985 54.6869 48.9985 53.2579C48.9985 51.829 49.3036 50.4166 49.8933 49.1158C50.4515 47.9723 51.3196 47.0098 52.3981 46.3386C53.5421 45.6559 54.8549 45.3107 56.1856 45.3429C57.0897 45.337 57.9878 45.4907 58.8389 45.7967C59.6679 46.0947 60.4232 46.5683 61.0533 47.1853C61.7267 47.8636 62.243 48.6823 62.5656 49.5832C62.959 50.6911 63.1466 51.862 63.1193 53.0378V54.1419H50.6562V51.7169H59.6693C59.6731 51.0785 59.5225 50.4486 59.2305 49.8813C58.9503 49.3524 58.5297 48.9116 58.0152 48.6078C57.4691 48.2876 56.845 48.1258 56.2126 48.1404C55.5318 48.1275 54.8617 48.3109 54.2817 48.6688C53.7459 49.0053 53.3026 49.4711 52.9922 50.0235C52.6877 50.6043 52.5278 51.2504 52.5264 51.9066V54.0132C52.5043 54.8 52.671 55.5806 53.0124 56.2892C53.3061 56.8982 53.7769 57.4036 54.3627 57.7387C54.9816 58.0831 55.6806 58.2561 56.3881 58.24C56.8677 58.2466 57.3449 58.171 57.7992 58.0165C58.2099 57.8718 58.585 57.6409 58.8996 57.3391C59.2052 57.0351 59.4363 56.6641 59.5748 56.2553L62.9505 56.6347C62.7494 57.4956 62.3362 58.2921 61.7487 58.9512C61.1244 59.6303 60.3497 60.1524 59.487 60.4753C58.4948 60.8632 57.4395 61.063 56.3746 61.0646Z" fill="#03224E"/>
        <path d="M79.2683 45.5327L73.8672 60.7667H69.9177L64.5166 45.5327H68.3311L71.8215 56.8515H71.9769L75.4808 45.5327H79.2683Z" fill="#03224E"/>
        <path d="M99.9885 50.6132C100.044 52.557 99.6245 54.4849 98.7665 56.2286C98.0232 57.7151 96.8704 58.9564 95.4449 59.8051C93.99 60.6202 92.3514 61.0481 90.6851 61.0481C89.0188 61.0481 87.3802 60.6202 85.9254 59.8051C84.5039 58.9514 83.3523 57.7114 82.6037 56.2286C81.8043 54.4664 81.3906 52.5527 81.3906 50.6166C81.3906 48.6805 81.8043 46.7668 82.6037 45.0046C83.3523 43.5218 84.5039 42.2818 85.9254 41.4281C87.3808 40.6149 89.0191 40.188 90.6851 40.188C92.351 40.188 93.9894 40.6149 95.4449 41.4281C96.8704 42.2768 98.0232 43.5181 98.7665 45.0046C99.6242 46.746 100.044 48.6716 99.9885 50.6132ZM96.3023 50.6132C96.343 49.2764 96.099 47.9462 95.5866 46.7116C95.1756 45.7295 94.4852 44.8907 93.6017 44.3001C92.7226 43.7643 91.7137 43.4809 90.6851 43.4809C89.6565 43.4809 88.6476 43.7643 87.7685 44.3001C86.8875 44.8917 86.1995 45.7304 85.7903 46.7116C84.8361 49.2246 84.8361 52.0018 85.7903 54.5149C86.1995 55.496 86.8875 56.3347 87.7685 56.9263C88.6476 57.4622 89.6565 57.7455 90.6851 57.7455C91.7137 57.7455 92.7226 57.4622 93.6017 56.9263C94.4852 56.3357 95.1756 55.4969 95.5866 54.5149C96.0978 53.2798 96.3418 51.9499 96.3023 50.6132Z" fill="#03224E"/>
        <path d="M103.317 66.4768V45.5326H106.834V48.0524H107.044C107.262 47.6306 107.525 47.2333 107.827 46.867C108.196 46.4164 108.656 46.0493 109.177 45.79C109.861 45.4621 110.614 45.3063 111.371 45.3361C112.494 45.3216 113.596 45.6346 114.544 46.237C115.534 46.8816 116.317 47.7989 116.799 48.8788C117.395 50.2294 117.681 51.697 117.637 53.1733C117.677 54.6369 117.396 56.0916 116.813 57.434C116.341 58.5326 115.566 59.4728 114.578 60.1434C113.625 60.7595 112.512 61.08 111.378 61.0646C110.633 61.0908 109.893 60.9399 109.218 60.6243C108.703 60.3645 108.244 60.0054 107.867 59.5676C107.558 59.2071 107.289 58.8142 107.064 58.3958H106.915V66.5242L103.317 66.4768ZM106.828 53.153C106.808 54.0339 106.95 54.911 107.246 55.7405C107.481 56.4197 107.902 57.0185 108.461 57.4678C109.016 57.8894 109.697 58.1091 110.392 58.091C111.11 58.1141 111.814 57.8867 112.384 57.4475C112.94 56.9857 113.359 56.3785 113.592 55.6931C113.877 54.877 114.016 54.0173 114.004 53.153C114.019 52.2956 113.882 51.4423 113.599 50.6331C113.368 49.9541 112.949 49.3551 112.391 48.9059C111.81 48.5063 111.123 48.2924 110.419 48.2924C109.716 48.2924 109.028 48.5063 108.448 48.9059C107.889 49.3445 107.468 49.9345 107.233 50.6061C106.946 51.4239 106.807 52.2862 106.821 53.153H106.828Z" fill="#03224E"/>
        <path d="M132.698 49.5631L129.438 49.9153C129.337 49.5788 129.174 49.2641 128.958 48.9873C128.71 48.6917 128.395 48.4596 128.04 48.31C127.513 48.0994 126.945 48.0095 126.378 48.047C125.812 48.0845 125.261 48.2484 124.766 48.5267C124.539 48.6492 124.349 48.831 124.217 49.0528C124.086 49.2747 124.016 49.5283 124.016 49.7866C124.007 49.9935 124.047 50.1997 124.132 50.3881C124.218 50.5766 124.347 50.7419 124.509 50.8704C125.005 51.2144 125.569 51.4455 126.163 51.5478L128.749 52.1033C129.935 52.289 131.047 52.8 131.963 53.5799C132.311 53.9204 132.585 54.3298 132.768 54.7823C132.95 55.2347 133.037 55.7203 133.023 56.2081C133.031 57.1223 132.736 58.0134 132.185 58.7415C131.591 59.5086 130.8 60.0987 129.897 60.4484C128.824 60.8807 127.676 61.0904 126.521 61.0648C124.941 61.1403 123.375 60.7316 122.031 59.893C121.481 59.522 121.016 59.0377 120.667 58.4725C120.318 57.9072 120.092 57.2739 120.006 56.6145L123.496 56.2758C123.617 56.9065 123.978 57.4653 124.502 57.8338C125.108 58.2116 125.815 58.3937 126.528 58.3554C127.239 58.3865 127.944 58.205 128.553 57.8338C128.783 57.7018 128.975 57.5129 129.11 57.2852C129.246 57.0574 129.322 56.7986 129.33 56.5332C129.334 56.3263 129.292 56.121 129.205 55.9331C129.119 55.7453 128.99 55.5798 128.83 55.4495C128.377 55.1014 127.846 54.869 127.284 54.7721L124.691 54.2234C123.486 54.041 122.361 53.5062 121.457 52.6858C121.11 52.319 120.84 51.886 120.662 51.4124C120.485 50.9389 120.404 50.4344 120.424 49.9289C120.397 49.0509 120.666 48.1893 121.187 47.4836C121.75 46.7602 122.5 46.2051 123.355 45.8782C124.376 45.481 125.466 45.2877 126.561 45.3092C128.059 45.2234 129.543 45.6249 130.795 46.454C131.812 47.1992 132.496 48.3161 132.698 49.5631Z" fill="#03224E"/>
        <path d="M29.6523 73.9688H34.1353L40.1507 88.6879H40.387L46.3958 73.9688H50.8854V94.2898H47.3612V80.3225H47.1722L41.582 94.2153H38.949L33.3588 80.3225H33.1698V94.3101H29.6523V73.9688Z" fill="#03224E"/>
        <path d="M61.458 94.547C60.0849 94.5839 58.7265 94.2544 57.522 93.592C56.4242 92.9624 55.5381 92.0192 54.9767 90.8825C54.3893 89.5823 54.0854 88.1713 54.0854 86.7438C54.0854 85.3163 54.3893 83.9052 54.9767 82.6051C55.5346 81.4592 56.4056 80.496 57.4882 79.8279C58.6281 79.1405 59.9394 78.7928 61.269 78.8253C62.1729 78.8217 63.0706 78.9753 63.9223 79.2792C64.7537 79.5754 65.5097 80.0518 66.1367 80.6746C66.812 81.3499 67.3307 82.1663 67.6558 83.0657C68.0498 84.1758 68.2374 85.349 68.2094 86.527V87.6244H55.7463V85.2062H64.7594C64.7642 84.5646 64.6111 83.9318 64.3138 83.3637C64.0324 82.8379 63.615 82.398 63.1053 82.0902C62.5317 81.7724 61.8848 81.6113 61.2296 81.6232C60.5743 81.6351 59.9337 81.8195 59.3718 82.158C58.8315 82.4889 58.3869 82.956 58.0823 83.5127C57.7768 84.0907 57.6169 84.7348 57.6165 85.389V87.5024C57.5837 88.2966 57.7436 89.0869 58.0823 89.8055C58.3824 90.4101 58.8517 90.9138 59.4326 91.255C60.0525 91.5967 60.7508 91.7695 61.458 91.7563C61.9398 91.7629 62.4192 91.6873 62.8758 91.5328C63.2834 91.386 63.656 91.1552 63.9695 90.8554C64.2766 90.5552 64.508 90.1861 64.6446 89.7784L68.0203 90.1509C67.8443 91.0267 67.4441 91.8414 66.8591 92.5149C66.2378 93.196 65.4653 93.7204 64.6041 94.0458C63.5956 94.4078 62.5287 94.5778 61.458 94.547Z" fill="#03224E"/>
        <path d="M74.7921 85.355V94.2828H71.2139V79.0487H74.6368V81.6363H74.8124C75.1463 80.8007 75.7315 80.0904 76.4867 79.6042C77.3441 79.0763 78.3371 78.8125 79.3425 78.8455C80.2997 78.8255 81.2452 79.0591 82.0836 79.5229C82.8686 79.9778 83.5009 80.6569 83.8997 81.4737C84.3696 82.4409 84.6011 83.5072 84.5748 84.5828V94.2828H80.9966V85.1383C81.0495 84.269 80.7666 83.4127 80.2067 82.7472C79.9299 82.4535 79.5926 82.2238 79.2184 82.074C78.8441 81.9243 78.4418 81.8581 78.0395 81.8801C77.4574 81.8713 76.883 82.0136 76.3719 82.2933C75.8866 82.5689 75.4923 82.981 75.2377 83.4787C74.9355 84.0571 74.7823 84.7021 74.7921 85.355Z" fill="#03224E"/>
        <path d="M95.7686 79.049V81.8262H87.0391V79.049H95.7686ZM89.1928 75.3979H92.771V89.6972C92.7489 90.0784 92.8257 90.4588 92.9938 90.8013C93.1206 91.0405 93.3292 91.2257 93.5812 91.3229C93.8401 91.4205 94.1148 91.4688 94.3914 91.4652C94.5996 91.4657 94.8075 91.4476 95.0125 91.411C95.1582 91.3904 95.3025 91.361 95.4446 91.3229L96.0454 94.134C95.8564 94.195 95.5796 94.2695 95.2285 94.3508C94.8041 94.4377 94.3722 94.483 93.939 94.4862C93.1115 94.525 92.2852 94.3864 91.5153 94.0798C90.8196 93.7928 90.2266 93.3017 89.8139 92.6709C89.372 91.9596 89.1555 91.1306 89.1928 90.2933V75.3979Z" fill="#03224E"/>
        <path d="M105.227 94.5473C103.878 94.5822 102.544 94.2448 101.372 93.5719C100.285 92.9172 99.4087 91.9625 98.8474 90.8218C98.2556 89.5252 97.9492 88.1159 97.9492 86.6898C97.9492 85.2638 98.2556 83.8544 98.8474 82.5579C99.4086 81.4153 100.285 80.4584 101.372 79.801C102.556 79.1583 103.881 78.8218 105.227 78.8218C106.574 78.8218 107.898 79.1583 109.082 79.801C110.17 80.4584 111.046 81.4153 111.607 82.5579C112.199 83.8544 112.506 85.2638 112.506 86.6898C112.506 88.1159 112.199 89.5252 111.607 90.8218C111.046 91.9625 110.17 92.9172 109.082 93.5719C107.911 94.2448 106.577 94.5822 105.227 94.5473ZM105.227 91.6753C105.962 91.6997 106.68 91.4594 107.253 90.9979C107.813 90.5203 108.231 89.8968 108.461 89.1961C108.735 88.3848 108.87 87.5328 108.86 86.6763C108.869 85.8154 108.735 84.959 108.461 84.1429C108.228 83.4421 107.81 82.8173 107.253 82.3343C106.68 81.8728 105.962 81.6325 105.227 81.6569C104.494 81.6384 103.778 81.8781 103.202 82.3343C102.643 82.8169 102.223 83.4416 101.987 84.1429C101.713 84.959 101.579 85.8154 101.588 86.6763C101.578 87.5328 101.713 88.3848 101.987 89.1961C102.219 89.8973 102.64 90.5207 103.202 90.9979C103.779 91.4684 104.504 91.7181 105.248 91.7024L105.227 91.6753Z" fill="#03224E"/>
        <path d="M115.53 94.2831V79.0491H118.993V81.5892H119.155C119.389 80.7704 119.891 80.0545 120.58 79.5571C121.256 79.0757 122.067 78.8219 122.896 78.8323H123.571C123.777 78.8455 123.982 78.8704 124.185 78.9068V82.2124C123.951 82.1414 123.712 82.0916 123.469 82.0634C123.156 82.0235 122.84 82.0031 122.524 82.0024C121.913 81.9935 121.31 82.1378 120.769 82.4224C120.265 82.6945 119.843 83.0967 119.547 83.5875C119.245 84.1094 119.093 84.7049 119.108 85.308V94.2628L115.53 94.2831Z" fill="#03224E"/>
    </g>
    <defs>
        <clipPath id="clip0_301_1804">
            <rect width="132.523" height="100" fill="white" transform="translate(0.5)"/>
        </clipPath>
    </defs>
</svg>