<svg xmlns="http://www.w3.org/2000/svg" width="172" height="87" viewBox="0 0 172 87" fill="none">
    <path fill-rule="evenodd" clip-rule="evenodd" d="M91.9555 74.527C101.067 82.7652 112.989 87.2074 125.277 86.9422C131.428 87.0729 137.545 85.9844 143.273 83.74C149.002 81.4956 154.228 78.1397 158.65 73.8661C166.395 66.2195 170.827 55.8429 170.993 44.9668C171.159 39.0522 170.145 33.1634 168.011 27.6437C165.877 22.1241 162.666 17.0838 158.563 12.8156C152.8 7.0427 142.355 0.0872189 125.329 0.0872189C113.354 -0.145892 101.758 4.27392 92.9827 12.4153C90.6123 14.5657 88.4067 16.8907 86.3846 19.3707C84.4921 17.0664 82.4386 14.899 80.2392 12.8848C71.1315 4.39107 59.0625 -0.213449 46.6048 0.0524081C40.2174 -0.00336352 33.8797 1.17763 27.9422 3.53009C22.3751 5.77062 17.3445 9.15987 13.1793 13.4762C5.21331 21.9399 0.844782 33.1599 0.992905 44.7753C0.971424 50.6152 2.20339 56.3917 4.60585 61.7158C7.00831 67.0399 10.5254 71.7879 14.9202 75.6397C23.0891 82.8633 33.6055 86.8795 44.5157 86.9422C57.2512 87.2554 69.6715 82.9639 79.4906 74.8573C81.8423 72.9118 84.0475 70.7961 86.0887 68.5277C87.9112 70.653 89.871 72.6573 91.9555 74.527ZM97.6309 68.1452C94.6978 65.485 92.0331 62.5438 89.6749 59.364L78.3067 41.889C74.5638 36.0291 70.403 30.0472 65.3022 25.9609C60.0315 21.6655 53.3869 19.4123 46.5874 19.6144C38.0917 19.6144 31.1455 22.5009 26.4973 27.9435C22.6218 32.6831 20.5497 38.6392 20.6478 44.7579C20.6478 58.2165 32.9909 67.2758 44.5157 67.2758C51.7087 67.5217 58.7935 65.4757 64.7451 61.4335C68.4742 58.7075 71.7774 55.4434 74.5464 51.7481L80.9181 61.5031C78.8478 63.9495 76.5641 66.2071 74.0938 68.2496C65.7802 75.0935 55.2675 78.7008 44.4983 78.4046C35.6972 78.3366 27.2186 75.0875 20.6304 69.2583C17.1266 66.2083 14.3188 62.4427 12.3967 58.2161C10.4746 53.9895 9.4829 49.4001 9.48856 44.7579C9.3313 35.3215 12.8521 26.1935 19.3073 19.3015C22.6407 15.8557 26.6621 13.1482 31.1106 11.3549C36.0322 9.42012 41.2812 8.45162 46.57 8.50293C56.8845 8.27482 66.88 12.0813 74.4245 19.11C77.5506 22.012 80.3684 25.2285 82.8332 28.7084L92.8783 44.271L94.3928 46.6012C102.645 59.3643 110.775 67.2584 125.277 67.2584C143.191 67.2584 151.251 54.0955 151.251 44.7579C151.489 38.051 149.068 31.5212 144.514 26.5871C139.97 21.9618 133.511 19.6318 125.277 19.6318C118.688 19.4374 112.259 21.6786 107.223 25.9261C103.689 29.0191 100.596 32.5824 98.0313 36.5158L91.5551 26.4827C93.6732 23.6535 96.0511 21.028 98.658 18.6405C105.881 11.9467 115.425 8.3179 125.277 8.52034C139.361 8.52034 147.821 14.0674 152.435 18.7275C155.742 22.1994 158.325 26.2928 160.035 30.7703C161.744 35.2479 162.546 40.0205 162.393 44.8101C162.247 53.4365 158.715 61.6605 152.557 67.7105C148.943 71.2069 144.672 73.9537 139.989 75.7921C135.307 77.6306 130.307 78.5245 125.277 78.422C115.086 78.6458 105.195 74.969 97.6309 68.1452ZM125.277 58.7556C115.075 58.7556 109.626 53.8868 103.097 44.2884V44.2188C110.566 32.8815 115.527 28.0997 125.259 28.1519C131.126 28.1519 135.548 29.6299 138.42 32.5338C141.399 35.8676 142.932 40.2445 142.686 44.7057V44.8449C142.686 50.5831 137.306 58.7556 125.277 58.7556ZM29.1434 44.7753C29.1434 40.8803 30.4143 28.1693 46.5525 28.1693V28.0997C56.9109 28.0997 62.3774 33.2643 69.5151 44.0625C62.7604 53.5566 56.5279 58.686 44.4634 58.686C37.0645 58.686 29.1434 53.1391 29.1434 44.7753Z" fill="url(#paint0_linear_2_2710)"/>
    <defs>
        <linearGradient id="paint0_linear_2_2710" x1="17.0255" y1="-3.29021" x2="43.8732" y2="115.411" gradientUnits="userSpaceOnUse">
            <stop stop-color="#437FEC"/>
            <stop offset="0.38" stop-color="#356FD8"/>
            <stop offset="1" stop-color="#184EAE"/>
        </linearGradient>
    </defs>
</svg>