<svg xmlns="http://www.w3.org/2000/svg" width="166" height="118" viewBox="0 0 166 118" fill="none">
    <path fill-rule="evenodd" clip-rule="evenodd" d="M84.6622 11.8905C84.1591 12.0238 83.6304 12.0948 83.0849 12.0948C82.5043 12.0948 81.9427 12.0143 81.4108 11.864L56.4604 35.2737H109.53L84.6622 11.8905ZM77.8141 9.08925C77.2887 8.19566 76.9877 7.15639 76.9877 6.04739C76.9877 2.70751 79.7175 0 83.0849 0C86.4523 0 89.1821 2.70751 89.1821 6.04739C89.1821 7.18609 88.8648 8.25128 88.3131 9.16072L116.129 35.2737H153.296C156.664 35.2781 159.893 36.6068 162.274 38.9688C164.656 41.3308 165.995 44.5334 166 47.8738V105.4C165.995 108.74 164.656 111.943 162.274 114.305C159.893 116.667 156.664 117.995 153.296 118H12.7039C9.33601 117.995 6.10732 116.667 3.72585 114.305C1.34438 111.943 0.00449354 108.74 0 105.4V47.8738C0.00449354 44.5334 1.34438 41.3308 3.72585 38.9688C6.10732 36.6068 9.33601 35.2781 12.7039 35.2737H49.9222L77.8141 9.08925ZM38.6382 107.084C38.4606 107.086 38.2843 107.054 38.1195 106.988C37.9548 106.922 37.8049 106.824 37.6785 106.7C37.5521 106.577 37.4517 106.429 37.3832 106.267C37.3147 106.104 37.2795 105.93 37.2795 105.753V47.722C37.2581 47.5336 37.2771 47.343 37.3353 47.1623C37.3934 46.9816 37.4893 46.8151 37.6168 46.6737C37.7442 46.5323 37.9003 46.4189 38.0749 46.3414C38.2494 46.264 38.4385 46.2242 38.6297 46.2242C38.8209 46.2242 39.01 46.264 39.1845 46.3414C39.3591 46.4189 39.5152 46.5323 39.6427 46.6737C39.7701 46.8151 39.866 46.9816 39.9241 47.1623C39.9823 47.343 40.0013 47.5336 39.9799 47.722V105.753C39.9799 106.106 39.8386 106.445 39.5869 106.695C39.3353 106.944 38.994 107.084 38.6382 107.084ZM53.0915 107.084C52.7356 107.084 52.3944 106.944 52.1427 106.695C51.8911 106.445 51.7498 106.106 51.7498 105.753V47.722C51.7284 47.5336 51.7474 47.343 51.8055 47.1623C51.8637 46.9816 51.9596 46.8151 52.087 46.6737C52.2145 46.5323 52.3706 46.4189 52.5451 46.3414C52.7197 46.264 52.9088 46.2242 53.1 46.2242C53.2912 46.2242 53.4803 46.264 53.6548 46.3414C53.8294 46.4189 53.9855 46.5323 54.1129 46.6737C54.2404 46.8151 54.3363 46.9816 54.3944 47.1623C54.4525 47.343 54.4715 47.5336 54.4502 47.722V105.753C54.4502 105.93 54.4149 106.104 54.3465 106.267C54.278 106.429 54.1776 106.577 54.0512 106.7C53.9248 106.824 53.7749 106.922 53.6101 106.988C53.4454 107.054 53.2691 107.086 53.0915 107.084ZM81.7262 107.084C81.5486 107.086 81.3723 107.054 81.2075 106.988C81.0428 106.922 80.8929 106.824 80.7665 106.7C80.6401 106.577 80.5397 106.429 80.4712 106.267C80.4027 106.104 80.3675 105.93 80.3675 105.753V47.722C80.3462 47.5336 80.3652 47.343 80.4233 47.1623C80.4814 46.9816 80.5773 46.8151 80.7048 46.6737C80.8322 46.5323 80.9883 46.4189 81.1629 46.3414C81.3374 46.264 81.5265 46.2242 81.7177 46.2242C81.9089 46.2242 82.098 46.264 82.2726 46.3414C82.4471 46.4189 82.6032 46.5323 82.7307 46.6737C82.8581 46.8151 82.954 46.9816 83.0122 47.1623C83.0703 47.343 83.0893 47.5336 83.0679 47.722V105.753C83.0679 106.106 82.9266 106.445 82.6749 106.695C82.4233 106.944 82.0821 107.084 81.7262 107.084ZM95.6723 106.695C95.9239 106.944 96.2652 107.084 96.6211 107.084C96.7987 107.086 96.975 107.054 97.1397 106.988C97.3045 106.922 97.4544 106.824 97.5808 106.7C97.7072 106.577 97.8076 106.429 97.876 106.267C97.9445 106.104 97.9798 105.929 97.9798 105.753V47.722C97.9798 47.545 97.9446 47.3697 97.8764 47.2062C97.8081 47.0427 97.708 46.8942 97.5818 46.7691C97.4556 46.6439 97.3059 46.5448 97.141 46.4771C96.9762 46.4094 96.7995 46.3743 96.6211 46.3743C96.4434 46.3743 96.2676 46.4096 96.1037 46.4775C95.9398 46.5454 95.7911 46.6449 95.6663 46.7703C95.5415 46.8957 95.443 47.0441 95.3766 47.2075C95.3102 47.3709 95.2771 47.5458 95.2793 47.722V105.753C95.2793 106.106 95.4207 106.445 95.6723 106.695ZM66.7543 106.988C66.919 107.054 67.0953 107.086 67.273 107.084C67.6288 107.084 67.9701 106.944 68.2217 106.695C68.4733 106.445 68.6147 106.106 68.6147 105.753V47.722C68.6169 47.5458 68.5839 47.3709 68.5175 47.2075C68.451 47.0441 68.3526 46.8957 68.2278 46.7703C68.1029 46.6449 67.9543 46.5454 67.7904 46.4775C67.6265 46.4096 67.4506 46.3743 67.273 46.3743C66.9126 46.3743 66.567 46.5163 66.3122 46.7691C66.0574 47.0218 65.9142 47.3646 65.9142 47.722V105.753C65.9142 105.929 65.9495 106.104 66.018 106.267C66.0865 106.429 66.1868 106.577 66.3132 106.7C66.4396 106.824 66.5895 106.922 66.7543 106.988ZM125.884 107.084C125.528 107.084 125.187 106.944 124.935 106.695C124.684 106.445 124.542 106.106 124.542 105.753V47.722C124.54 47.5458 124.573 47.3709 124.64 47.2075C124.706 47.0441 124.805 46.8957 124.929 46.7703C125.054 46.6449 125.203 46.5454 125.367 46.4775C125.531 46.4096 125.707 46.3743 125.884 46.3743C126.245 46.3743 126.59 46.5163 126.845 46.7691C127.1 47.0218 127.243 47.3646 127.243 47.722V105.753C127.243 105.929 127.208 106.104 127.139 106.267C127.071 106.429 126.97 106.577 126.844 106.7C126.718 106.824 126.568 106.922 126.403 106.988C126.238 107.054 126.062 107.086 125.884 107.084ZM140.192 106.988C140.357 107.054 140.533 107.086 140.711 107.084C141.067 107.084 141.408 106.944 141.66 106.695C141.911 106.445 142.053 106.106 142.053 105.753V47.722C142.055 47.5458 142.022 47.3709 141.956 47.2075C141.889 47.0441 141.791 46.8957 141.666 46.7703C141.541 46.6449 141.392 46.5454 141.229 46.4775C141.065 46.4096 140.889 46.3743 140.711 46.3743C140.533 46.3743 140.356 46.4094 140.191 46.4771C140.026 46.5448 139.877 46.6439 139.75 46.7691C139.624 46.8942 139.524 47.0427 139.456 47.2062C139.387 47.3697 139.352 47.545 139.352 47.722V105.753C139.352 105.929 139.388 106.104 139.456 106.267C139.525 106.429 139.625 106.577 139.751 106.7C139.878 106.824 140.028 106.922 140.192 106.988ZM111.346 107.084C110.99 107.084 110.649 106.944 110.397 106.695C110.146 106.445 110.004 106.106 110.004 105.753V47.722C109.983 47.5336 110.002 47.343 110.06 47.1623C110.118 46.9816 110.214 46.8151 110.342 46.6737C110.469 46.5323 110.625 46.4189 110.8 46.3414C110.974 46.264 111.163 46.2242 111.355 46.2242C111.546 46.2242 111.735 46.264 111.909 46.3414C112.084 46.4189 112.24 46.5323 112.367 46.6737C112.495 46.8151 112.591 46.9816 112.649 47.1623C112.707 47.343 112.726 47.5336 112.705 47.722V105.753C112.705 105.93 112.669 106.104 112.601 106.267C112.532 106.429 112.432 106.577 112.306 106.7C112.179 106.824 112.029 106.922 111.865 106.988C111.7 107.054 111.524 107.086 111.346 107.084ZM23.6493 106.988C23.8141 107.054 23.9904 107.086 24.168 107.084C24.5238 107.084 24.8651 106.944 25.1167 106.695C25.3683 106.445 25.5097 106.106 25.5097 105.753V47.722C25.5119 47.5458 25.4789 47.3709 25.4125 47.2075C25.3461 47.0441 25.2476 46.8957 25.1228 46.7703C24.998 46.6449 24.8493 46.5454 24.6854 46.4775C24.5215 46.4096 24.3456 46.3743 24.168 46.3743C23.9895 46.3743 23.8129 46.4094 23.648 46.4771C23.4832 46.5448 23.3334 46.6439 23.2072 46.7691C23.0811 46.8942 22.981 47.0427 22.9127 47.2062C22.8444 47.3697 22.8093 47.545 22.8093 47.722V105.753C22.8093 105.929 22.8445 106.104 22.913 106.267C22.9815 106.429 23.0818 106.577 23.2082 106.7C23.3346 106.824 23.4846 106.922 23.6493 106.988ZM12.7039 44.1848C11.7204 44.1893 10.7787 44.5796 10.0848 45.2709C9.39096 45.9623 9.00143 46.8983 9.00144 47.8738V105.4C9.00591 106.372 9.39742 107.304 10.0908 107.991C10.7842 108.679 11.7233 109.068 12.7039 109.072H153.296C154.277 109.068 155.216 108.679 155.909 107.991C156.603 107.304 156.994 106.372 156.999 105.4V47.8738C156.999 46.8983 156.609 45.9623 155.915 45.2709C155.221 44.5796 154.28 44.1893 153.296 44.1848H12.7039Z" fill="url(#paint0_linear_2_2714)"/>
    <defs>
        <linearGradient id="paint0_linear_2_2714" x1="15.6569" y1="-4.5232" x2="64.1369" y2="149.624" gradientUnits="userSpaceOnUse">
            <stop stop-color="#437FEC"/>
            <stop offset="0.38" stop-color="#356FD8"/>
            <stop offset="1" stop-color="#184EAE"/>
        </linearGradient>
    </defs>
</svg>