<svg xmlns="http://www.w3.org/2000/svg" width="128" height="111" viewBox="0 0 128 111" fill="none">
    <path fill-rule="evenodd" clip-rule="evenodd" d="M111.542 0.492188H67.2964C62.9333 0.500475 58.7514 2.25863 55.6676 5.38129C52.5838 8.50395 50.8498 12.7361 50.8457 17.1501V40.3057H16.474C12.1082 40.3098 7.9223 42.0663 4.83518 45.1894C1.74805 48.3125 0.01191 52.5473 0.0078125 56.964V81.6847C0.0159936 86.1002 1.75345 90.3325 4.83969 93.4547C7.92593 96.5769 12.1094 98.3348 16.474 98.3431H44.4697L48.8958 102.821L56.4943 110.508L59.7752 100.143L60.3478 98.3431H60.7192C65.0851 98.3389 69.271 96.5824 72.3581 93.4593C75.4452 90.3362 77.1813 86.1015 77.1854 81.6847V58.5453H95.2921L99.7027 63.0227L107.317 70.7097L110.598 60.3612L111.17 58.5453H111.526C115.892 58.5411 120.078 56.7846 123.165 53.6615C126.252 50.5384 127.988 46.3036 127.992 41.8869V17.1658C127.992 12.7491 126.26 8.51307 123.176 5.38702C120.092 2.26098 115.907 0.500482 111.542 0.492188ZM60.7192 40.3057H57.3919V17.1658C57.396 14.5096 58.4409 11.9636 60.2974 10.0854C62.154 8.20719 64.6709 7.15019 67.2964 7.14604H111.542C112.842 7.14604 114.13 7.40504 115.332 7.90859C116.534 8.41214 117.625 9.15037 118.545 10.0808C119.465 11.0112 120.194 12.1156 120.692 13.3313C121.19 14.547 121.446 15.85 121.446 17.1658V41.8869C121.448 43.2033 121.193 44.5071 120.696 45.7237C120.199 46.9403 119.47 48.046 118.55 48.9769C117.63 49.9077 116.537 50.6455 115.334 51.1483C114.132 51.6512 112.843 51.9091 111.542 51.9071H106.404L104.361 58.3259L98.0158 51.9071H76.4043C75.6116 49.3964 74.2344 47.0876 72.3581 45.1894C69.271 42.0663 65.0851 40.3098 60.7192 40.3057ZM88.8542 40.3371C89.1327 40.3371 89.405 40.4206 89.6366 40.5771C89.8682 40.7337 90.0487 40.9562 90.1553 41.2166C90.2618 41.4769 90.2897 41.7635 90.2354 42.0399C90.1811 42.3163 90.0469 42.57 89.85 42.7692C89.653 42.9684 89.4021 43.1041 89.1289 43.1591C88.8557 43.214 88.5726 43.1859 88.3152 43.078C88.0579 42.9702 87.838 42.7875 87.6832 42.5532C87.5285 42.3189 87.4459 42.0434 87.4459 41.7616C87.4459 41.3838 87.5942 41.0217 87.8584 40.7545C88.1225 40.4873 88.4807 40.3371 88.8542 40.3371ZM88.8542 38.1924C88.1563 38.1924 87.4741 38.4014 86.8939 38.7936C86.3136 39.1859 85.8613 39.7437 85.5943 40.3959C85.3272 41.0482 85.2573 41.7656 85.3935 42.4581C85.5296 43.1505 85.8657 43.7867 86.3592 44.2859C86.8526 44.7851 87.4813 45.1251 88.1658 45.2629C88.8502 45.4006 89.5597 45.3297 90.2045 45.0595C90.8492 44.7893 91.4003 44.332 91.788 43.745C92.1757 43.158 92.3826 42.4676 92.3826 41.7616C92.3826 40.8149 92.0109 39.9072 91.3492 39.2378C90.6875 38.5684 89.79 38.1924 88.8542 38.1924ZM94.2404 18.1876C93.0199 16.9558 91.3674 16.2622 89.6434 16.2581L89.6589 16.2738C87.9336 16.278 86.2804 16.9742 85.0619 18.2098C83.8433 19.4454 83.159 21.1196 83.159 22.865C83.159 23.1141 83.2569 23.3531 83.431 23.5293C83.6051 23.7055 83.8413 23.8041 84.0876 23.8041C84.3338 23.8041 84.57 23.7055 84.7442 23.5293C84.9183 23.3531 85.0161 23.1141 85.0161 22.865C85.0161 21.6193 85.5053 20.4246 86.376 19.5438C87.2466 18.663 88.4275 18.1681 89.6589 18.1681C90.8902 18.1681 92.0711 18.663 92.9418 19.5438C93.8125 20.4246 94.3016 21.6193 94.3016 22.865C94.2242 23.7007 93.9162 24.4973 93.4128 25.1645C92.9093 25.8316 92.2306 26.3423 91.4541 26.638C90.2802 27.2639 89.321 28.2342 88.7023 29.4217C88.0836 30.6093 87.8344 31.9584 87.9875 33.2918C88.0141 33.5174 88.1219 33.7249 88.2904 33.8751C88.4588 34.0253 88.676 34.1076 88.9005 34.106H89.0244C89.2698 34.0709 89.4917 33.9398 89.6423 33.7406C89.7929 33.5414 89.86 33.2903 89.8291 33.0415C89.7365 32.0986 89.9222 31.1491 90.363 30.3131C90.8037 29.4771 91.4797 28.7921 92.3052 28.3446C93.3943 27.8848 94.3333 27.1241 95.0148 26.1495C95.6963 25.1748 96.0928 24.0256 96.1587 22.8336C96.1505 21.0895 95.461 19.4195 94.2404 18.1876ZM83.393 16.5261C85.0552 14.8446 87.3083 13.8982 89.6589 13.894H89.8136C92.1562 13.8981 94.4023 14.8379 96.0631 16.5093C97.7239 18.1806 98.6649 20.4481 98.6812 22.818C98.6136 24.4492 98.0986 26.0293 97.194 27.3814C96.2893 28.7335 95.0306 29.804 93.5588 30.4736C93.1475 30.698 92.8115 31.0412 92.5938 31.4594C92.376 31.8777 92.2863 32.352 92.3362 32.8221C92.4368 33.6912 92.1941 34.5655 91.6608 35.2546C91.1275 35.9436 90.3468 36.3918 89.4886 36.5014C89.3498 36.5169 89.2096 36.5169 89.0708 36.5014C88.2761 36.5009 87.5086 36.2087 86.9109 35.6788C86.3131 35.149 85.9258 34.4175 85.8209 33.6205C85.5909 31.809 85.9121 29.9696 86.7415 28.3473C87.5709 26.725 88.8693 25.3969 90.4636 24.5399C91.81 23.8197 92.0112 23.0372 92.0112 22.865C92.0112 22.2421 91.7666 21.6446 91.3313 21.2042C90.8959 20.7638 90.3055 20.5166 89.6898 20.5166C89.0742 20.5166 88.4837 20.7638 88.0484 21.2042C87.613 21.6446 87.3685 22.2421 87.3685 22.865C87.3113 23.7079 86.9399 24.4973 86.3295 25.0739C85.719 25.6505 84.915 25.9714 84.0799 25.9714C83.2447 25.9714 82.4407 25.6505 81.8302 25.0739C81.2198 24.4973 80.8484 23.7079 80.7913 22.865C80.7953 20.487 81.7309 18.2076 83.393 16.5261ZM60.7192 46.9438C62.0205 46.9418 63.3093 47.1998 64.5119 47.7026C65.7145 48.2054 66.8072 48.9432 67.7273 49.874C68.6474 50.8049 69.3769 51.9102 69.8739 53.1268C70.371 54.3434 70.6257 55.6476 70.6237 56.964V81.6847C70.6237 84.3422 69.5802 86.891 67.7228 88.7701C65.8653 90.6492 63.3461 91.7049 60.7192 91.7049H55.5658L53.5385 98.1237L47.1934 91.7049H16.474C13.8485 91.7007 11.3316 90.6437 9.47503 88.7655C7.61846 86.8873 6.57364 84.3409 6.56954 81.6847V56.964C6.56954 54.3066 7.61304 51.7577 9.47049 49.8786C11.3279 47.9995 13.8472 46.9438 16.474 46.9438H60.7192ZM28.986 67.94C28.7495 67.783 28.4722 67.7007 28.1893 67.7038C27.8158 67.7038 27.4576 67.854 27.1935 68.1212C26.9294 68.3884 26.781 68.7509 26.781 69.1288C26.7779 69.4149 26.8592 69.6953 27.0145 69.9345C27.1697 70.1738 27.3919 70.361 27.6527 70.4719C27.9135 70.5829 28.201 70.6126 28.4787 70.5575C28.7563 70.5025 29.0114 70.3651 29.2114 70.1627C29.4115 69.9603 29.5474 69.702 29.6018 69.4212C29.6563 69.1403 29.6268 68.8494 29.5171 68.5856C29.4074 68.3218 29.2225 68.0971 28.986 67.94ZM26.2146 66.1565C26.7997 65.7638 27.487 65.556 28.1893 65.5591C29.1251 65.5591 30.0225 65.9351 30.6843 66.6045C31.346 67.2739 31.7177 68.182 31.7177 69.1288C31.7208 69.8392 31.5152 70.5343 31.1269 71.1263C30.7387 71.7183 30.1854 72.1801 29.5372 72.4534C28.889 72.7267 28.1751 72.7992 27.4862 72.6613C26.7973 72.5235 26.1644 72.1817 25.6679 71.6794C25.1713 71.177 24.8335 70.5366 24.6972 69.8397C24.561 69.1428 24.6325 68.4207 24.9026 67.765C25.1728 67.1092 25.6294 66.5493 26.2146 66.1565ZM38.0318 67.7038C38.314 67.7038 38.5899 67.7887 38.8244 67.9477C39.0588 68.1066 39.2413 68.3326 39.3486 68.5967C39.4559 68.8608 39.4832 69.1513 39.427 69.4311C39.3708 69.7109 39.2336 69.9676 39.033 70.1684C38.8323 70.3692 38.5772 70.5049 38.3 70.5587C38.0228 70.6125 37.736 70.5818 37.4761 70.4704C37.2163 70.359 36.995 70.1719 36.8404 69.933C36.6858 69.6941 36.605 69.4143 36.608 69.1288C36.608 68.9403 36.6449 68.7538 36.7167 68.5799C36.7884 68.406 36.8935 68.248 37.026 68.1155C37.1584 67.983 37.3155 67.8784 37.4881 67.8078C37.6608 67.7371 37.8456 67.7017 38.0318 67.7038ZM38.0318 65.5591C37.3296 65.556 36.6423 65.7638 36.0571 66.1565C35.4719 66.5493 35.0153 67.1092 34.7451 67.765C34.475 68.4207 34.4035 69.1428 34.5398 69.8397C34.676 70.5366 35.0138 71.177 35.5104 71.6794C36.007 72.1817 36.6399 72.5235 37.3288 72.6613C38.0177 72.7992 38.7315 72.7267 39.3797 72.4534C40.0279 72.1801 40.5812 71.7183 40.9695 71.1263C41.3577 70.5343 41.5633 69.8392 41.5603 69.1288C41.5562 68.1833 41.1831 67.2776 40.5223 66.6091C39.8615 65.9406 38.9664 65.5632 38.0318 65.5591ZM48.6556 67.94C48.4191 67.783 48.1417 67.7007 47.8589 67.7038C47.4866 67.7079 47.1307 67.8595 46.8675 68.1258C46.6043 68.3921 46.4546 68.7522 46.4506 69.1288C46.4475 69.4149 46.5288 69.6952 46.6841 69.9345C46.8393 70.1737 47.0615 70.361 47.3223 70.4719C47.5831 70.5829 47.8706 70.6126 48.1482 70.5575C48.4258 70.5024 48.681 70.3651 48.881 70.1627C49.081 69.9603 49.217 69.702 49.2714 69.4212C49.3259 69.1403 49.2963 68.8494 49.1867 68.5856C49.077 68.3218 48.8921 68.0971 48.6556 67.94ZM45.8883 66.1642C46.4715 65.7695 47.1573 65.5591 47.8589 65.5591C48.3235 65.5571 48.784 65.6478 49.2139 65.8263C49.6438 66.0048 50.0346 66.2671 50.3639 66.5988C50.6932 66.9305 50.9545 67.3247 51.1327 67.7588C51.311 68.193 51.4028 68.6587 51.4028 69.1288C51.4059 69.8385 51.2006 70.5331 50.8131 71.1248C50.4255 71.7164 49.8731 72.1785 49.2258 72.4522C48.5785 72.726 47.8655 72.799 47.177 72.6625C46.4885 72.5259 45.8556 72.1859 45.3584 71.6851C44.8612 71.1843 44.5222 70.5455 44.3842 69.8496C44.2462 69.1537 44.3155 68.4317 44.5832 67.7757C44.851 67.1196 45.3052 66.5588 45.8883 66.1642Z" fill="url(#paint0_linear_2_2752)"/>
    <defs>
        <linearGradient id="paint0_linear_2_2752" x1="12.0792" y1="-3.72497" x2="64.5542" y2="134.251" gradientUnits="userSpaceOnUse">
            <stop stop-color="#437FEC"/>
            <stop offset="0.38" stop-color="#356FD8"/>
            <stop offset="1" stop-color="#184EAE"/>
        </linearGradient>
    </defs>
</svg>