<svg xmlns="http://www.w3.org/2000/svg" width="156" height="121" viewBox="0 0 156 121" fill="none">
    <path fill-rule="evenodd" clip-rule="evenodd" d="M138.187 100.377H99.3787C99.7393 100.769 99.9594 101.293 99.9594 101.867V111.278H130.08C132.759 111.278 134.93 113.45 134.93 116.13V116.147C134.93 118.827 132.759 121 130.08 121H44.6018C41.9234 121 39.752 118.827 39.752 116.147V116.13C39.752 113.45 41.9234 111.278 44.6018 111.278H74.9481V101.867C74.9481 101.293 75.1682 100.769 75.5287 100.377H36.9633C32.4904 100.373 28.202 98.5928 25.0392 95.4282C24.7863 95.1752 24.5423 94.915 24.3073 94.6481L9.10488 108.635C7.13325 110.449 4.06514 110.32 2.25213 108.348L2.2404 108.335C0.427387 106.362 0.555906 103.292 2.52754 101.478L20.1839 85.2337C20.1241 84.6595 20.0934 84.0801 20.0928 83.4976V16.8797C20.0974 12.4043 21.8763 8.11359 25.0392 4.94903C28.202 1.78447 32.4904 0.00458777 36.9633 0H138.187C142.657 0.00917175 146.941 1.79131 150.1 4.95538C153.259 8.11944 155.035 12.4073 155.04 16.8797V83.4976C155.035 87.97 153.259 92.2578 150.1 95.4219C146.941 98.5859 142.657 100.368 138.187 100.377ZM31.5254 88.9383C31.3632 88.776 31.209 88.6072 31.0631 88.4325L48.4382 72.4466C48.882 72.0383 49.2324 71.5664 49.4883 71.0577C50.1739 71.5857 50.8804 72.0816 51.6054 72.5445H48.9667C48.7855 72.5423 48.6058 72.5758 48.4378 72.6435C48.2698 72.7113 48.1169 72.8119 47.988 72.9393C47.8591 73.0667 47.7567 73.2184 47.6869 73.3857C47.617 73.5529 47.581 73.7324 47.581 73.9137C47.581 74.2814 47.727 74.634 47.9869 74.894C48.2468 75.154 48.5992 75.3002 48.9667 75.3002H57.1204C60.3935 76.5266 63.8832 77.1694 67.4308 77.1713C74.8224 77.1753 81.9452 74.3976 87.3845 69.39C91.8737 65.2571 94.955 59.8452 96.2318 53.9146H108.204C108.385 53.9169 108.565 53.883 108.733 53.8152C108.901 53.7474 109.054 53.6472 109.183 53.5199C109.312 53.3925 109.414 53.2407 109.484 53.0735C109.554 52.9062 109.59 52.7267 109.59 52.5454C109.59 52.1777 109.444 51.8251 109.184 51.5651C108.924 51.3051 108.572 51.1589 108.204 51.1589H96.6897C97.4723 44.5169 95.973 37.7998 92.4298 32.1168C90.0753 28.3403 86.9142 25.1743 83.2077 22.8243H87.8175C87.9987 22.8243 88.178 22.7884 88.3452 22.7185C88.5123 22.6486 88.6639 22.5458 88.7912 22.4168C88.9185 22.2879 89.0189 22.1352 89.0867 21.9671C89.1544 21.799 89.1881 21.619 89.1859 21.4378C89.1859 21.0747 89.0417 20.7265 88.7851 20.4697C88.5285 20.2129 88.1805 20.0686 87.8175 20.0686H77.6356C77.3355 19.9579 77.0333 19.8519 76.7289 19.7508C70.3853 17.6424 63.5188 17.7578 57.2573 20.0686H41.1896C40.8267 20.0686 40.4787 20.2129 40.2221 20.4697C39.9655 20.7265 39.8213 21.0747 39.8213 21.4378C39.819 21.619 39.8528 21.799 39.9205 21.9671C39.9882 22.1352 40.0887 22.2879 40.216 22.4168C40.3433 22.5458 40.4948 22.6486 40.662 22.7185C40.8292 22.7884 41.0085 22.8243 41.1896 22.8243H51.6854C48.4235 24.8924 45.5922 27.5876 43.3614 30.7613H34.3999C34.2187 30.759 34.0389 30.793 33.8708 30.8608C33.7028 30.9285 33.55 31.0292 33.4211 31.1565C33.2922 31.2839 33.1898 31.4352 33.1199 31.6025C33.0501 31.7697 33.0142 31.9492 33.0142 32.1305C33.0142 32.4982 33.1602 32.8508 33.4201 33.1108C33.6799 33.3708 34.0324 33.517 34.3999 33.517H41.6432C40.2605 36.0334 39.2632 38.7194 38.6656 41.4866C38.5466 41.4538 38.4227 41.4368 38.2971 41.4368H34.3652C33.9977 41.4368 33.6453 41.5825 33.3854 41.8425C33.1255 42.1025 32.9795 42.4556 32.9795 42.8233C32.9795 43.0045 33.0155 43.1836 33.0854 43.3509C33.1552 43.5181 33.2575 43.6699 33.3865 43.7973C33.5154 43.9246 33.6683 44.0252 33.8363 44.093C34.0043 44.1608 34.184 44.1943 34.3652 44.192H38.2118C37.9349 46.4952 37.9296 48.8337 38.2036 51.1589H34.3999C34.0324 51.1589 33.6799 51.3051 33.4201 51.5651C33.1602 51.8251 33.0142 52.1777 33.0142 52.5454C33.0142 52.7267 33.0501 52.9062 33.1199 53.0735C33.1898 53.2407 33.2922 53.3925 33.4211 53.5199C33.55 53.6472 33.7028 53.7474 33.8708 53.8152C34.0389 53.883 34.2187 53.9169 34.3999 53.9146H38.6615C39.2626 56.7065 40.2621 59.3776 41.6152 61.8517H34.3999C34.2061 61.8299 34.0098 61.8491 33.824 61.9084C33.6382 61.9677 33.467 62.0657 33.3216 62.1957C33.1762 62.3258 33.0599 62.4851 32.9803 62.6632C32.9006 62.8413 32.8595 63.0342 32.8595 63.2293C32.8595 63.4245 32.9006 63.6173 32.9803 63.7955C33.0599 63.9736 33.1762 64.1329 33.3216 64.263C33.467 64.393 33.6382 64.491 33.824 64.5503C34.0098 64.6096 34.2061 64.6288 34.3999 64.607H42.8096C42.4741 64.7915 42.1553 65.0191 41.8609 65.2899L33.7912 72.7144C33.6813 72.7751 33.58 72.8507 33.4904 72.9393C33.4241 73.0048 33.3648 73.0769 33.3133 73.1541L29.2729 76.8715V16.8797C29.2729 14.8389 30.0832 12.882 31.5254 11.439C32.9677 9.99597 34.9237 9.18513 36.9633 9.18513H138.187C140.225 9.18971 142.178 10.002 143.62 11.4441C145.061 12.8861 145.873 14.8403 145.877 16.8797V83.4976C145.873 85.5369 145.061 87.4911 143.62 88.9332C142.178 90.3752 140.225 91.1875 138.187 91.1921H36.9633C34.9237 91.1921 32.9677 90.3813 31.5254 88.9383ZM50.0495 65.4909H62.0786C62.809 65.4909 63.5096 65.2008 64.0261 64.684C64.5425 64.1673 64.8327 63.4665 64.8327 62.7356C64.8327 62.0048 64.5425 61.3036 64.0261 60.7868C63.5096 60.2701 62.809 59.98 62.0786 59.98H47.5118C46.9892 59.98 46.482 60.1285 46.0464 60.4022C45.3506 59.2312 44.7496 58.0013 44.2516 56.7236C44.0686 56.2539 43.9001 55.7795 43.7463 55.3011H81.0104C81.7408 55.3011 82.4413 55.0106 82.9578 54.4939C83.4743 53.9771 83.7644 53.2763 83.7644 52.5455C83.7644 51.8147 83.4743 51.1138 82.9578 50.5971C82.4413 50.0803 81.7408 49.7898 81.0104 49.7898H42.6406C42.5215 48.3924 42.5204 46.9836 42.639 45.5785H44.1169C44.8473 45.5785 45.5478 45.2884 46.0643 44.7717C46.5808 44.2549 46.8709 43.5541 46.8709 42.8233C46.8709 42.0925 46.5808 41.3912 46.0643 40.8745C45.5478 40.3577 44.8473 40.0676 44.1169 40.0676H43.7405C44.3127 38.2831 45.0855 36.5655 46.0463 34.9485C46.177 35.0307 46.3146 35.102 46.4579 35.1613C46.792 35.2998 47.1501 35.3712 47.5118 35.3712H62.0786C62.809 35.3712 63.5096 35.0807 64.0261 34.5639C64.5425 34.0472 64.8327 33.3463 64.8327 32.6155C64.8327 31.8847 64.5425 31.1839 64.0261 30.6671C63.5096 30.1504 62.809 29.8599 62.0786 29.8599H50.049C51.7533 28.1942 53.694 26.776 55.8156 25.6547C59.3954 23.7629 63.3824 22.7733 67.4308 22.7717C72.4438 22.7697 77.3406 24.282 81.48 27.1111C82.681 27.9319 83.802 28.8524 84.8328 29.8599H83.4353H69.8385H68.8685C68.5068 29.8599 68.1486 29.9312 67.8145 30.0697C67.4804 30.2082 67.1768 30.4113 66.9211 30.6671C66.6653 30.923 66.4625 31.2268 66.3241 31.5612C66.1857 31.8955 66.1144 32.2537 66.1144 32.6155C66.1144 32.9774 66.1857 33.3356 66.3241 33.6699C66.4625 34.0042 66.6653 34.308 66.9211 34.5639C67.1768 34.8198 67.4804 35.0229 67.8145 35.1613C68.1486 35.2998 68.5068 35.3712 68.8685 35.3712H69.8385H83.4353H88.3025C88.5489 35.3712 88.792 35.3381 89.0257 35.2745C89.6406 36.3459 90.1775 37.4662 90.63 38.6271C90.8794 39.2671 91.1016 39.9154 91.2965 40.5703H84.4919C83.7615 40.5703 83.061 40.8604 82.5445 41.3772C82.0281 41.8939 81.7379 42.5947 81.7379 43.3256C81.7379 44.0564 82.0281 44.7572 82.5445 45.2739C83.061 45.7907 83.7615 46.0812 84.4919 46.0812H92.2799C92.3693 47.4764 92.3414 48.8793 92.1949 50.2749C92.1907 50.2749 92.1865 50.2749 92.1824 50.2749H89.2725C88.542 50.2749 87.8416 50.5654 87.3251 51.0822C86.8086 51.5989 86.5185 52.2998 86.5185 53.0306C86.5185 53.7614 86.8086 54.4622 87.3251 54.979C87.8416 55.4957 88.542 55.7862 89.2725 55.7862H90.9738C90.4601 57.2782 89.807 58.7145 89.0253 60.0765C88.7917 60.013 88.5488 59.98 88.3025 59.98H69.8385C69.1081 59.98 68.4075 60.2701 67.891 60.7868C67.3746 61.3036 67.0844 62.0048 67.0844 62.7356C67.0844 63.4665 67.3746 64.1673 67.891 64.684C68.4075 65.2008 69.1081 65.4909 69.8385 65.4909H84.8323C84.6524 65.6667 84.4696 65.84 84.284 66.0107C81.3033 68.7518 77.6994 70.724 73.7847 71.7564C72.1313 72.1925 70.4435 72.4553 68.7481 72.5445H66.1328C64.6846 72.4683 63.2411 72.2654 61.8187 71.9354C57.8749 71.0204 54.2137 69.1565 51.1525 66.5057C50.7741 66.178 50.4063 65.8396 50.0495 65.4909ZM136.368 22.8244H127.707C127.34 22.8244 126.988 22.6782 126.728 22.4182C126.468 22.1582 126.322 21.8056 126.322 21.4379C126.322 21.2566 126.358 21.0771 126.428 20.9098C126.498 20.7426 126.6 20.5908 126.729 20.4635C126.858 20.3361 127.011 20.2355 127.179 20.1677C127.347 20.0999 127.526 20.0664 127.707 20.0687H136.368C136.549 20.0664 136.729 20.0999 136.897 20.1677C137.065 20.2355 137.218 20.3361 137.347 20.4635C137.476 20.5908 137.578 20.7426 137.648 20.9098C137.718 21.0771 137.754 21.2566 137.754 21.4379C137.754 21.8056 137.608 22.1582 137.348 22.4182C137.088 22.6782 136.735 22.8244 136.368 22.8244ZM97.6038 33.517H106.264C106.632 33.517 106.984 33.3708 107.244 33.1108C107.504 32.8508 107.65 32.4982 107.65 32.1305C107.65 31.9492 107.614 31.7697 107.544 31.6025C107.474 31.4352 107.372 31.2839 107.243 31.1565C107.114 31.0292 106.961 30.9285 106.793 30.8608C106.625 30.793 106.445 30.759 106.264 30.7613H97.6038C97.2409 30.7613 96.8929 30.9057 96.6362 31.1624C96.3796 31.4192 96.2355 31.7674 96.2355 32.1305C96.2354 32.4952 96.3791 32.8454 96.6352 33.1049C96.8913 33.3644 97.2393 33.5124 97.6038 33.517ZM140.265 44.192H131.605C131.242 44.192 130.894 44.0481 130.637 43.7913C130.381 43.5346 130.236 43.1864 130.236 42.8233C130.234 42.642 130.268 42.4621 130.336 42.294C130.403 42.1259 130.504 41.9728 130.631 41.8438C130.758 41.7148 130.91 41.6124 131.077 41.5425C131.244 41.4727 131.424 41.4368 131.605 41.4368H140.265C140.446 41.4368 140.626 41.4727 140.793 41.5425C140.96 41.6124 141.112 41.7148 141.239 41.8438C141.366 41.9728 141.467 42.1259 141.534 42.294C141.602 42.4621 141.636 42.642 141.633 42.8233C141.633 43.1864 141.489 43.5346 141.233 43.7913C140.976 44.0481 140.628 44.192 140.265 44.192ZM120.831 22.8244H95.5773C95.3961 22.8244 95.2168 22.7885 95.0496 22.7186C94.8825 22.6487 94.7308 22.5459 94.6035 22.4169C94.4762 22.288 94.3758 22.1353 94.308 21.9672C94.2403 21.7991 94.2067 21.6191 94.209 21.4379C94.209 21.0748 94.3531 20.7266 94.6097 20.4698C94.8664 20.2131 95.2144 20.0687 95.5773 20.0687H120.831C121.012 20.0664 121.192 20.0999 121.36 20.1677C121.528 20.2355 121.681 20.3361 121.81 20.4635C121.939 20.5908 122.041 20.7426 122.111 20.9098C122.181 21.0771 122.217 21.2566 122.217 21.4379C122.217 21.8056 122.071 22.1582 121.811 22.4182C121.551 22.6782 121.199 22.8244 120.831 22.8244ZM102.384 44.192H127.638C128.001 44.192 128.349 44.0481 128.606 43.7913C128.862 43.5346 129.007 43.1864 129.007 42.8233C129.009 42.642 128.975 42.4621 128.907 42.294C128.84 42.1259 128.739 41.9728 128.612 41.8438C128.485 41.7148 128.333 41.6124 128.166 41.5425C127.999 41.4727 127.819 41.4368 127.638 41.4368H102.384C102.017 41.4368 101.664 41.5825 101.405 41.8425C101.145 42.1025 100.999 42.4556 100.999 42.8233C100.999 43.0045 101.035 43.1836 101.104 43.3509C101.174 43.5181 101.277 43.6699 101.406 43.7973C101.535 43.9246 101.687 44.0252 101.855 44.093C102.023 44.1608 102.203 44.1943 102.384 44.192ZM115.011 53.9146H140.265C140.628 53.9146 140.976 53.7703 141.233 53.5135C141.489 53.2567 141.633 52.9086 141.633 52.5454C141.636 52.3642 141.602 52.1843 141.534 52.0161C141.467 51.848 141.366 51.6949 141.239 51.566C141.112 51.437 140.96 51.3346 140.793 51.2647C140.626 51.1948 140.446 51.1589 140.265 51.1589H115.011C114.644 51.1589 114.291 51.3051 114.031 51.5651C113.772 51.8251 113.626 52.1777 113.626 52.5454C113.626 52.7267 113.662 52.9062 113.731 53.0735C113.801 53.2407 113.904 53.3925 114.033 53.5199C114.161 53.6472 114.314 53.7474 114.482 53.8152C114.65 53.883 114.83 53.9169 115.011 53.9146ZM140.265 33.517H115.011C114.644 33.517 114.291 33.3708 114.031 33.1108C113.772 32.8508 113.626 32.4982 113.626 32.1305C113.626 31.9492 113.662 31.7697 113.731 31.6025C113.801 31.4352 113.904 31.2839 114.033 31.1565C114.161 31.0292 114.314 30.9285 114.482 30.8608C114.65 30.793 114.83 30.759 115.011 30.7613H140.265C140.628 30.7613 140.976 30.9057 141.233 31.1624C141.489 31.4192 141.633 31.7674 141.633 32.1305C141.636 32.3117 141.602 32.4917 141.534 32.6598C141.467 32.8279 141.366 32.981 141.239 33.11C141.112 33.239 140.96 33.3413 140.793 33.4112C140.626 33.4811 140.446 33.517 140.265 33.517ZM51.8767 45.5785H77.1304C77.8609 45.5785 78.5614 45.2884 79.0779 44.7717C79.5944 44.2549 79.8845 43.5541 79.8845 42.8233C79.8845 42.0925 79.5944 41.3912 79.0779 40.8745C78.5614 40.3577 77.8609 40.0676 77.1304 40.0676H51.8767C51.1463 40.0676 50.4457 40.3577 49.9292 40.8745C49.4128 41.3912 49.1226 42.0925 49.1226 42.8233C49.1226 43.5541 49.4128 44.2549 49.9292 44.7717C50.4457 45.2884 51.1463 45.5785 51.8767 45.5785ZM96.6338 64.607H105.294C105.488 64.6288 105.684 64.6096 105.87 64.5503C106.056 64.491 106.227 64.393 106.372 64.263C106.518 64.1329 106.634 63.9736 106.714 63.7955C106.793 63.6173 106.835 63.4245 106.835 63.2293C106.835 63.0342 106.793 62.8413 106.714 62.6632C106.634 62.4851 106.518 62.3258 106.372 62.1957C106.227 62.0657 106.056 61.9677 105.87 61.9084C105.684 61.8491 105.488 61.8299 105.294 61.8517H96.6338C96.2952 61.8898 95.9825 62.0511 95.7554 62.3053C95.5283 62.5594 95.4028 62.8884 95.4028 63.2293C95.4028 63.5703 95.5283 63.8992 95.7554 64.1534C95.9825 64.4076 96.2952 64.5689 96.6338 64.607ZM92.6673 75.3002H84.0069C83.6424 75.2956 83.2943 75.1472 83.0382 74.8877C82.7821 74.6282 82.6385 74.2784 82.6385 73.9137C82.6385 73.5506 82.7826 73.2024 83.0393 72.9456C83.2959 72.6889 83.644 72.5445 84.0069 72.5445H92.6673C92.8485 72.5423 93.0282 72.5758 93.1963 72.6435C93.3643 72.7113 93.5172 72.8119 93.6461 72.9393C93.775 73.0667 93.8773 73.2184 93.9472 73.3857C94.017 73.5529 94.053 73.7324 94.053 73.9137C94.053 74.2814 93.907 74.634 93.6471 74.894C93.3873 75.154 93.0348 75.3002 92.6673 75.3002ZM140.265 75.3001H131.605C131.424 75.3001 131.244 75.2638 131.077 75.1939C130.91 75.124 130.758 75.0216 130.631 74.8927C130.504 74.7637 130.403 74.611 130.336 74.4429C130.268 74.2748 130.234 74.0948 130.236 73.9136C130.236 73.5505 130.381 73.2023 130.637 72.9455C130.894 72.6888 131.242 72.5444 131.605 72.5444H140.265C140.628 72.5444 140.976 72.6888 141.233 72.9455C141.489 73.2023 141.633 73.5505 141.633 73.9136C141.636 74.0948 141.602 74.2748 141.534 74.4429C141.467 74.611 141.366 74.7637 141.239 74.8927C141.112 75.0216 140.96 75.124 140.793 75.1939C140.626 75.2638 140.446 75.3001 140.265 75.3001ZM101.414 75.3002H126.634C126.815 75.3002 126.994 75.2639 127.161 75.194C127.328 75.1241 127.48 75.0217 127.607 74.8928C127.735 74.7638 127.835 74.6111 127.903 74.443C127.971 74.2749 128.004 74.0949 128.002 73.9137C128.002 73.5506 127.858 73.2024 127.601 72.9456C127.345 72.6889 126.996 72.5445 126.634 72.5445H101.414C101.233 72.5423 101.053 72.5758 100.885 72.6435C100.717 72.7113 100.565 72.8119 100.436 72.9393C100.307 73.0667 100.204 73.2184 100.134 73.3857C100.065 73.5529 100.029 73.7324 100.029 73.9137C100.029 74.2814 100.175 74.634 100.435 74.894C100.694 75.154 101.047 75.3002 101.414 75.3002ZM115.011 64.607H140.265C140.604 64.5689 140.916 64.4076 141.144 64.1534C141.371 63.8992 141.496 63.5703 141.496 63.2293C141.496 62.8884 141.371 62.5594 141.144 62.3053C140.916 62.0511 140.604 61.8898 140.265 61.8517H115.011C114.817 61.8299 114.621 61.8491 114.436 61.9084C114.25 61.9677 114.079 62.0657 113.933 62.1957C113.788 62.3258 113.671 62.4851 113.592 62.6632C113.512 62.8413 113.471 63.0342 113.471 63.2293C113.471 63.4245 113.512 63.6173 113.592 63.7955C113.671 63.9736 113.788 64.1329 113.933 64.263C114.079 64.393 114.25 64.491 114.436 64.5503C114.621 64.6096 114.817 64.6288 115.011 64.607Z" fill="url(#paint0_linear_2_493)"/>
    <defs>
        <linearGradient id="paint0_linear_2_493" x1="15.4931" y1="-4.6382" x2="69.3447" y2="150.352" gradientUnits="userSpaceOnUse">
            <stop stop-color="#437FEC"/>
            <stop offset="0.38" stop-color="#356FD8"/>
            <stop offset="1" stop-color="#184EAE"/>
        </linearGradient>
    </defs>
</svg>